<?xml version="1.0" standalone="no"?>
<!DOCTYPE svg PUBLIC "-//W3C//DTD SVG 20010904//EN"
 "http://www.w3.org/TR/2001/REC-SVG-20010904/DTD/svg10.dtd">
<svg version="1.0" xmlns="http://www.w3.org/2000/svg"
 width="1080.000000pt" height="1080.000000pt" viewBox="0 0 1080.000000 1080.000000"
 preserveAspectRatio="xMidYMid meet">
<metadata>
Created by potrace 1.11, written by Peter Selinger 2001-2013
</metadata>
<g transform="translate(0.000000,1080.000000) scale(0.100000,-0.100000)"
fill="#000000" stroke="none">
<path d="M5139 10796 c-3 -3 -34 -8 -70 -11 -137 -11 -226 -21 -309 -35 -30
-5 -75 -12 -100 -15 -141 -19 -431 -92 -634 -160 -189 -62 -523 -198 -564
-228 -7 -6 -36 -21 -63 -34 -150 -69 -426 -240 -624 -386 -60 -45 -112 -84
-115 -87 -3 -3 -30 -25 -60 -50 -91 -75 -100 -83 -174 -150 -111 -102 -296
-292 -317 -325 -10 -16 -19 -39 -19 -51 0 -87 91 -151 162 -113 11 6 88 79
171 163 170 170 254 247 367 336 25 19 50 38 55 43 6 4 51 38 101 75 235 172
502 325 774 444 202 89 508 194 660 228 30 6 62 14 70 17 8 3 22 7 30 8 24 4
82 15 125 25 22 5 60 12 85 15 24 4 47 8 50 10 3 2 30 6 60 9 49 6 73 9 160
21 172 25 741 25 877 1 10 -2 50 -7 88 -11 39 -4 79 -9 90 -11 10 -2 37 -6 60
-9 116 -17 405 -83 530 -122 376 -116 702 -265 1030 -472 66 -41 125 -79 130
-83 6 -4 64 -48 130 -97 276 -204 496 -413 745 -707 49 -58 206 -271 250 -339
25 -39 48 -71 52 -73 5 -2 8 -7 8 -11 0 -4 31 -59 68 -122 131 -219 263 -509
353 -778 40 -119 108 -362 125 -446 16 -81 47 -257 51 -290 2 -22 6 -51 9 -65
3 -14 6 -45 8 -70 2 -25 8 -83 12 -130 10 -111 11 -528 1 -650 -12 -145 -23
-240 -32 -285 -3 -11 -7 -38 -10 -60 -13 -90 -17 -115 -41 -220 -106 -480
-289 -931 -536 -1325 -143 -228 -324 -464 -500 -652 -33 -36 -43 -66 -34 -111
11 -61 79 -102 142 -86 34 10 129 108 250 258 10 13 24 28 30 35 24 26 172
228 224 306 66 99 165 262 206 340 16 30 32 57 37 58 4 2 7 7 7 12 0 4 29 68
64 142 82 171 88 184 140 320 38 100 112 317 121 358 2 8 17 67 34 130 27 105
61 260 76 350 3 19 10 59 15 88 5 29 9 56 8 60 -1 4 1 25 5 47 4 22 9 63 12
90 2 28 8 79 12 115 10 84 10 616 0 699 -4 36 -10 90 -12 120 -3 31 -7 67 -10
81 -2 14 -7 45 -10 70 -13 99 -57 332 -76 405 -6 22 -13 49 -15 60 -2 11 -13
52 -24 90 -11 39 -23 80 -25 92 -15 64 -126 369 -156 425 -5 10 -9 23 -9 29 0
21 -176 371 -250 499 -84 144 -264 415 -300 450 -3 3 -27 34 -54 70 -28 36
-65 80 -82 98 -18 17 -31 32 -28 32 2 0 -10 16 -28 36 -18 20 -44 48 -57 63
-117 130 -352 354 -466 444 -23 18 -102 82 -128 103 -78 64 -326 227 -507 334
-78 46 -359 182 -483 234 -183 76 -427 157 -607 202 -34 8 -196 45 -215 48
-200 37 -274 48 -507 73 -72 8 -612 15 -619 9z"/>
<path d="M5250 9795 c-7 -8 -15 -35 -17 -59 -5 -41 -7 -44 -33 -42 -62 4 -98
-34 -77 -82 10 -23 26 -29 82 -34 28 -3 30 -6 27 -38 -2 -39 12 -64 45 -74 35
-11 71 30 68 77 l-1 37 41 0 c99 0 104 108 6 113 l-44 3 -3 44 c-3 48 -22 70
-60 70 -12 0 -27 -7 -34 -15z"/>
<path d="M1960 9093 c-44 -14 -66 -34 -108 -93 -26 -36 -49 -67 -53 -70 -9 -8
-156 -234 -178 -275 -10 -20 -18 -44 -16 -53 2 -9 4 -25 4 -34 1 -10 14 -32
29 -49 53 -59 149 -41 191 36 27 49 130 204 197 295 58 80 68 103 65 157 -1
26 -53 83 -75 83 -8 0 -20 2 -28 4 -7 3 -20 2 -28 -1z"/>
<path d="M2809 8813 c-16 -6 -89 -73 -163 -147 -122 -123 -135 -140 -141 -178
-3 -24 -4 -360 -3 -748 3 -688 3 -706 23 -728 41 -48 48 -49 420 -48 193 1
355 -1 360 -5 7 -5 10 -267 9 -756 l0 -748 -600 -5 c-549 -5 -602 -6 -627 -22
-14 -10 -32 -28 -39 -40 -15 -29 -19 -508 -4 -553 12 -37 50 -71 85 -78 14 -3
104 -4 199 -3 l172 1 0 -765 c0 -708 1 -768 18 -800 10 -21 30 -41 50 -49 18
-8 31 -19 30 -23 -2 -5 -41 -65 -88 -134 l-85 -125 -35 7 c-19 3 -48 9 -65 13
-40 8 -312 7 -350 -2 -16 -3 -43 -9 -60 -13 -147 -29 -378 -150 -449 -235 -63
-75 1 -195 97 -183 17 2 56 22 86 44 74 54 221 126 296 145 360 89 731 -66
910 -380 89 -157 130 -356 104 -514 -15 -93 -20 -112 -41 -169 -78 -209 -231
-376 -426 -464 -311 -141 -674 -77 -913 161 -189 188 -273 452 -229 716 6 39
14 77 17 85 4 8 7 17 8 20 7 28 22 65 47 114 34 71 38 112 13 154 -31 52 -95
68 -154 38 -50 -27 -128 -207 -156 -365 -14 -76 -14 -295 -1 -376 19 -117 92
-288 176 -409 49 -71 170 -199 206 -219 11 -6 23 -16 27 -24 4 -7 15 -13 22
-13 8 0 15 -4 15 -8 0 -13 167 -98 240 -122 108 -35 231 -59 258 -49 26 10
131 10 177 0 53 -12 255 43 368 100 423 212 651 671 563 1132 -26 137 -94 304
-158 386 -10 13 -18 28 -18 33 0 11 162 252 173 256 4 2 7 8 7 13 0 8 15 31
75 114 7 11 55 80 105 153 l91 132 1352 -3 1352 -3 107 -29 107 -30 -181 -145
c-99 -80 -190 -153 -201 -162 -26 -23 -25 -24 -104 16 -103 52 -194 83 -298
103 -40 8 -284 10 -340 4 -48 -6 -185 -46 -253 -75 -189 -80 -368 -235 -475
-411 -21 -33 -37 -64 -37 -69 0 -5 -6 -17 -14 -25 -20 -23 -72 -183 -89 -273
-21 -114 -15 -310 13 -423 25 -99 88 -255 117 -287 58 -66 164 -50 194 29 15
40 11 65 -27 142 -59 123 -77 206 -78 361 0 113 4 147 23 210 46 148 98 241
193 341 198 210 474 300 753 244 44 -8 89 -20 100 -25 11 -4 45 -19 76 -33 88
-39 165 -92 238 -165 78 -79 127 -151 175 -255 47 -104 100 -135 172 -101 38
18 64 58 64 98 0 22 49 65 306 271 288 230 308 244 338 238 17 -4 81 -7 142
-7 l111 -1 88 -75 c48 -41 97 -83 109 -93 11 -10 43 -37 70 -60 27 -23 54 -46
60 -52 6 -5 45 -39 86 -74 41 -36 81 -70 88 -76 10 -9 10 -18 2 -41 -7 -16
-13 -36 -16 -44 -2 -8 -10 -42 -19 -75 -19 -73 -28 -310 -14 -380 5 -27 12
-63 15 -80 15 -82 102 -293 126 -303 5 -2 8 -9 8 -14 0 -16 74 -113 134 -177
105 -110 274 -217 421 -266 92 -30 220 -52 246 -42 19 7 124 5 204 -4 6 -1 24
1 40 5 17 3 44 8 60 11 105 20 147 45 165 100 15 45 0 93 -36 120 -38 29 -63
33 -119 19 -89 -23 -108 -26 -212 -29 -149 -5 -286 29 -418 103 -59 33 -75 44
-113 77 -144 124 -229 257 -275 431 -21 77 -24 109 -22 215 2 68 5 133 8 144
30 107 50 164 78 217 19 35 36 65 39 68 3 3 22 28 42 55 95 132 267 246 434
289 340 88 692 -46 885 -337 35 -53 87 -160 103 -214 33 -109 43 -294 21 -388
-34 -144 -92 -268 -175 -369 -27 -32 -51 -74 -55 -92 -13 -71 48 -137 122
-132 31 2 47 11 88 54 111 116 206 308 246 501 16 72 19 120 16 211 -4 121 -6
135 -32 237 -24 92 -25 95 -78 205 -55 115 -80 150 -187 263 -144 153 -367
273 -560 302 -19 3 -47 8 -60 10 -33 7 -209 7 -240 0 -14 -3 -44 -7 -68 -10
-73 -8 -187 -46 -288 -96 l-52 -26 -93 80 c-119 101 -209 179 -223 192 -6 6
-32 28 -58 49 -27 21 -48 42 -48 46 0 5 91 9 201 10 185 1 204 2 230 21 16 11
33 36 39 57 8 25 10 275 8 790 -3 663 -1 752 12 753 8 0 94 1 190 2 153 2 179
5 207 22 53 31 57 54 58 330 1 276 -1 291 -58 325 -31 19 -54 20 -509 20 -263
0 -478 3 -479 8 0 4 -1 336 -2 737 l-2 730 -28 60 c-126 272 -497 276 -629 7
l-33 -67 -1 -735 0 -735 -1396 -3 -1396 -2 0 757 0 758 357 -1 c196 0 368 4
384 9 15 5 37 23 49 40 l23 32 1 720 c1 552 -2 727 -11 750 -12 29 -254 277
-290 297 -28 16 -1909 17 -1946 1z m1936 -304 l80 -81 0 -617 1 -617 -1048 0
-1048 0 0 616 0 615 83 82 c45 45 91 83 101 85 11 1 409 2 885 1 l865 -3 81
-81z m-740 -1551 c6 -4 10 -271 9 -755 l0 -748 -235 0 -234 0 -1 750 c0 413 0
752 2 755 3 7 447 5 459 -2z m3440 -20 c54 -42 53 -29 52 -785 l0 -703 -113 0
-114 0 -1 28 c-6 241 -3 1384 4 1404 23 71 115 101 172 56z m1096 -1740 c3
-111 1 -199 -5 -205 -4 -4 -273 -8 -599 -8 -453 -1 -597 -4 -615 -13 -53 -30
-73 -109 -41 -162 34 -55 51 -58 414 -58 182 0 342 -1 357 -1 l26 -1 0 -695 0
-695 -179 2 -180 3 -23 65 c-28 80 -49 114 -82 128 -55 26 -129 6 -151 -40
-22 -46 -22 -60 2 -131 31 -90 36 -137 23 -207 -21 -113 -90 -203 -195 -252
-173 -81 -379 -6 -460 167 -24 52 -28 72 -28 150 1 108 21 160 91 235 88 95
220 130 349 95 39 -10 78 -15 98 -11 108 20 120 177 17 218 -103 41 -243 51
-351 23 -67 -17 -160 -60 -209 -96 -25 -19 -33 -20 -77 -10 -26 6 -57 13 -68
16 -23 4 -462 107 -690 161 -82 20 -157 37 -165 39 -87 19 -212 48 -240 55
-19 6 -249 60 -510 120 -629 146 -822 191 -840 196 -8 2 -30 31 -49 64 -69
120 -179 209 -316 255 -149 50 -234 25 -249 -75 -9 -66 34 -112 122 -131 120
-24 212 -95 261 -198 22 -47 26 -70 26 -146 0 -78 -4 -98 -27 -146 -36 -72
-98 -135 -168 -168 -48 -22 -68 -26 -150 -26 -78 0 -104 4 -143 23 -93 45
-153 114 -191 225 -24 68 -55 97 -108 102 -47 4 -95 -26 -114 -70 -14 -34 -14
-48 0 -105 5 -21 -18 -61 -135 -230 -77 -113 -155 -226 -172 -252 -18 -27 -39
-48 -49 -48 -17 0 -18 37 -18 695 0 655 1 695 18 696 9 0 980 1 2157 1 1734 0
2146 3 2172 13 90 37 90 174 0 209 -26 10 -509 12 -2419 12 l-2388 -1 -1 43
c-1 54 -1 169 0 182 1 7 1053 10 3136 10 l3135 0 1 -22z m-4141 -1194 c63 -14
122 -27 130 -29 8 -2 132 -31 275 -65 143 -34 271 -64 284 -66 14 -3 80 -18
148 -35 68 -16 179 -42 247 -59 68 -16 137 -32 153 -35 15 -2 43 -9 61 -14 18
-5 33 -9 35 -9 2 1 280 -63 422 -98 55 -13 109 -26 120 -28 11 -3 61 -14 110
-25 50 -12 123 -29 163 -38 60 -13 72 -19 66 -32 -15 -35 -43 -148 -43 -178
-1 -18 -5 -33 -10 -33 -5 0 -144 32 -308 70 -164 39 -307 72 -318 74 -11 2
-38 9 -60 14 -22 6 -51 13 -65 16 -14 3 -104 24 -200 46 -96 23 -182 43 -192
45 -15 3 -251 58 -308 72 -14 3 -31 7 -38 9 -13 2 -212 49 -377 89 -55 13
-143 34 -195 45 -299 68 -312 72 -304 89 6 15 42 135 43 146 1 3 1 19 1 35 0
26 3 30 23 25 12 -3 74 -17 137 -31z m-1115 -389 c21 -19 62 -47 91 -62 57
-29 64 -42 39 -67 -8 -8 -15 -19 -15 -24 0 -6 -3 -12 -7 -14 -5 -1 -25 -28
-45 -58 -20 -30 -84 -125 -142 -210 -58 -85 -112 -163 -119 -174 -6 -10 -30
-44 -52 -75 -22 -31 -76 -109 -119 -174 -70 -104 -81 -116 -96 -105 -59 44
-138 96 -154 101 -11 5 -16 14 -14 25 3 9 75 118 160 242 84 124 216 316 292
428 76 111 139 202 141 202 1 0 19 -16 40 -35z m860 -28 c60 -16 69 -18 155
-36 25 -5 112 -26 193 -45 82 -20 158 -38 170 -40 12 -2 72 -16 132 -31 61
-14 150 -35 198 -47 48 -11 86 -23 83 -25 -6 -6 -1456 -6 -1462 0 -2 2 14 29
37 60 33 48 45 57 70 57 37 0 121 20 134 31 5 5 16 9 25 9 9 0 47 20 85 44 75
48 81 48 180 23z m2526 -672 c15 -22 43 -57 63 -78 34 -35 45 -57 29 -57 -5 0
-25 -15 -45 -33 -20 -17 -77 -63 -127 -102 -50 -38 -91 -73 -91 -77 0 -4 -6
-8 -14 -8 -8 0 -16 -3 -18 -8 -1 -4 -23 -23 -48 -42 -25 -19 -47 -37 -50 -40
-16 -17 -73 -60 -79 -60 -5 0 -21 19 -36 43 -16 23 -46 60 -67 82 -21 22 -38
45 -38 51 0 5 15 21 33 34 17 13 41 32 52 42 18 16 46 38 180 143 21 17 43 35
49 40 6 6 31 26 56 45 25 19 47 37 50 40 20 23 66 47 69 37 2 -7 16 -30 32
-52z m1066 -23 c114 -98 120 -103 213 -182 47 -40 91 -78 98 -85 11 -10 6 -20
-28 -56 -23 -24 -56 -63 -73 -86 -17 -24 -34 -43 -38 -43 -7 0 -67 46 -79 61
-3 3 -39 35 -80 70 -41 35 -80 68 -86 74 -20 17 -108 92 -134 113 l-24 19 58
64 c32 35 65 76 74 92 9 15 17 27 19 27 1 0 37 -30 80 -68z"/>
<path d="M4143 8345 c-161 -38 -317 -186 -348 -331 -26 -121 -14 -230 37 -330
96 -192 312 -290 532 -240 98 23 237 132 286 226 136 261 10 572 -270 665 -64
21 -171 26 -237 10z m199 -243 c143 -63 178 -261 65 -373 -43 -43 -84 -61
-152 -66 -188 -15 -310 201 -204 361 61 92 185 125 291 78z"/>
<path d="M3318 4521 c-76 -49 -171 -171 -184 -236 -8 -44 18 -100 55 -119 65
-34 124 -12 174 67 19 28 49 66 68 82 50 44 69 75 69 113 0 101 -93 149 -182
93z"/>
<path d="M1495 8389 c-11 -7 -27 -22 -35 -33 -23 -32 -112 -227 -160 -351 -23
-60 -46 -119 -51 -130 -11 -27 -51 -145 -54 -159 -1 -6 -5 -18 -8 -26 -9 -23
-55 -189 -67 -245 -7 -27 -14 -59 -17 -70 -11 -45 -62 -314 -68 -364 -4 -30
-8 -61 -10 -70 -1 -9 -6 -47 -10 -86 -3 -38 -9 -97 -13 -130 -9 -81 -9 -618 0
-680 4 -27 10 -81 13 -120 3 -38 8 -81 10 -95 3 -14 7 -41 9 -60 4 -30 14 -94
32 -205 3 -16 7 -37 9 -45 2 -8 7 -27 10 -42 13 -68 18 -89 41 -183 41 -165
136 -457 189 -580 128 -298 260 -547 408 -770 55 -82 223 -313 237 -325 3 -3
16 -18 29 -35 29 -38 120 -142 186 -213 52 -55 90 -71 141 -58 22 6 73 49 75
64 0 4 2 16 5 27 7 34 -6 72 -34 102 -33 35 -171 193 -192 219 -8 10 -33 41
-55 69 -75 94 -119 154 -196 273 -35 53 -67 99 -71 100 -5 2 -8 8 -8 13 0 5
-19 39 -42 76 -102 167 -256 497 -337 724 -48 134 -120 384 -138 479 -2 14 -9
45 -14 70 -20 85 -20 88 -34 188 -3 20 -8 48 -11 62 -3 14 -7 50 -10 80 -3 30
-7 66 -9 79 -25 146 -25 811 -1 881 3 8 8 44 10 80 3 36 8 76 10 90 3 14 8 41
10 60 45 320 170 733 323 1065 76 164 81 202 35 248 -33 33 -103 46 -137 26z"/>
<path d="M6308 7943 c-19 -5 -27 -27 -31 -78 -2 -25 -7 -30 -32 -33 -59 -5
-73 -12 -79 -38 -11 -44 16 -74 67 -74 l43 0 1 -42 c2 -97 111 -100 115 -4 1
41 9 47 60 49 25 2 36 8 46 30 12 24 11 31 -2 53 -9 13 -26 24 -39 25 -63 3
-62 2 -65 44 -5 62 -31 82 -84 68z"/>
<path d="M8506 7237 c-11 -8 -18 -28 -19 -55 -1 -23 -4 -42 -7 -43 -3 -1 -23
-3 -45 -5 -63 -5 -85 -54 -44 -95 15 -15 30 -20 55 -17 19 2 34 2 35 -2 0 -3
2 -23 5 -45 4 -44 35 -78 62 -68 36 13 52 36 52 75 0 37 1 38 35 38 44 0 86
37 78 69 -8 31 -31 46 -72 46 -35 0 -36 2 -42 42 -3 23 -11 48 -18 57 -16 19
-51 21 -75 3z"/>
<path d="M2346 6654 c-9 -8 -17 -27 -17 -42 -3 -57 -3 -57 -41 -57 -50 0 -83
-32 -74 -69 7 -29 39 -46 85 -46 26 0 28 -3 29 -42 4 -102 111 -97 112 5 0 39
-1 38 61 41 53 2 72 55 34 95 -7 7 -30 14 -52 15 -37 1 -38 3 -44 43 -3 23
-11 48 -18 57 -17 20 -55 21 -75 0z"/>
<path d="M5605 6076 c-11 -8 -21 -31 -24 -57 -6 -43 -7 -44 -46 -45 -99 -4
-93 -114 7 -114 37 0 38 -1 38 -38 0 -21 6 -45 13 -54 39 -50 107 -13 103 56
l-3 36 42 0 c97 0 101 106 3 114 -18 2 -35 4 -38 5 -3 0 -6 19 -7 42 -3 60
-45 87 -88 55z"/>
<path d="M3994 2830 c-28 -11 -36 -24 -38 -64 -3 -45 -11 -54 -43 -50 -40 4
-73 -20 -73 -55 0 -35 19 -52 63 -55 46 -3 55 -11 52 -47 -3 -37 24 -69 59
-69 31 0 49 23 55 73 6 39 8 41 43 42 21 1 44 7 52 14 42 35 14 92 -49 96 -41
3 -55 17 -48 45 11 40 -35 84 -73 70z"/>
<path d="M2100 2073 c-75 -27 -125 -67 -158 -127 -25 -47 -22 -163 5 -207 102
-163 317 -164 406 0 62 114 17 256 -100 315 -34 17 -126 28 -153 19z"/>
<path d="M5330 2064 c-52 -18 -116 -75 -135 -121 -94 -222 162 -422 352 -277
55 42 87 108 86 179 0 83 -26 134 -97 193 -43 35 -143 48 -206 26z"/>
<path d="M8694 2064 c-158 -55 -200 -281 -72 -389 147 -125 365 -36 381 155 8
88 -53 193 -133 226 -49 21 -128 24 -176 8z"/>
<path d="M6283 1950 c-39 -16 -60 -64 -66 -153 -8 -98 -37 -215 -74 -295 -50
-107 -152 -235 -248 -307 -79 -60 -267 -145 -322 -145 -31 0 -83 -39 -98 -72
-22 -54 -4 -113 46 -142 29 -17 100 -20 130 -5 9 4 27 10 40 13 41 7 162 56
219 88 166 92 320 249 419 428 82 147 142 430 111 524 -20 62 -93 92 -157 66z"/>
<path d="M4833 1135 c-34 -34 -35 -38 -30 -86 8 -63 30 -85 142 -139 97 -47
192 -78 260 -86 64 -8 108 12 130 60 36 75 -9 147 -104 167 -69 14 -170 53
-234 91 -69 41 -119 38 -164 -7z"/>
</g>
</svg>
