<svg xmlns="http://www.w3.org/2000/svg" xmlns:xlink="http://www.w3.org/1999/xlink" width="1920" height="1080" viewBox="0 0 250.4 129.6"><clipPath id="mask0"><ellipse cx=".721" cy=".721" fill="#000" stroke-width="0" rx=".721" ry=".721" transform="matrix(0.999999764524893 0 0 0.999999764524893 3.90305662431987 81.9175543044311)"/><ellipse cx=".721" cy=".721" fill="#000" stroke-width="0" rx=".721" ry=".721" transform="matrix(0.999999786636878 0 0 0.999999786636878 6.4028530182696 81.0123530291801)"/><ellipse cx=".721" cy=".721" fill="#000" stroke-width="0" rx=".721" ry=".721" transform="matrix(0.999999786636878 0 0 0.999999786636878 1.34785395756447 83.2473526138835)"/><ellipse cx=".721" cy=".721" fill="#000" stroke-width="0" rx=".721" ry=".721" transform="matrix(0.999999786636878 0 0 0.999999786636878 8.57785261412199 80.3223531573925)"/><ellipse cx=".721" cy=".721" fill="#000" stroke-width="0" rx=".721" ry=".721" transform="matrix(0.999999786636878 0 0 0.999999786636878 -0.302145735840768 79.152353374796)"/><ellipse cx=".721" cy=".721" fill="#000" stroke-width="0" rx=".721" ry=".721" transform="matrix(0.999999786636878 0 0 0.999999786636878 -0.167145563851902 90.1473511308031)"/><ellipse cx=".721" cy=".721" fill="#000" stroke-width="0" rx=".721" ry=".721" transform="matrix(0.999999786636878 0 0 0.999999786636878 2.92285376198658 88.0173515955164)"/><ellipse cx=".721" cy=".721" fill="#000" stroke-width="0" rx=".721" ry=".721" transform="matrix(0.999999786636878 0 0 0.999999786636878 5.80285313364185 86.1873519947769)"/><ellipse cx=".721" cy=".721" fill="#000" stroke-width="0" rx=".721" ry=".721" transform="matrix(0.999999786636878 0 0 0.999999786636878 8.35285257729495 84.6873523220399)"/><ellipse cx=".721" cy=".721" fill="#000" stroke-width="0" rx=".721" ry=".721" transform="matrix(0.999999786636878 0 0 0.999999786636878 10.8128520405839 83.5173525773049)"/><ellipse cx=".721" cy=".721" fill="#000" stroke-width="0" rx=".721" ry=".721" transform="matrix(0.999999786636878 0 0 0.999999786636878 13.0928515431442 82.6773527605721)"/><ellipse cx=".721" cy=".721" fill="#000" stroke-width="0" rx=".721" ry=".721" transform="matrix(0.999999786636878 0 0 0.999999786636878 15.0728511111573 82.0773528914772)"/><ellipse cx=".721" cy=".721" fill="#000" stroke-width="0" rx=".721" ry=".721" transform="matrix(0.999999786532018 0 0 0.999999786532018 1.07265088167753 96.1271476465947)"/><ellipse cx=".721" cy=".721" fill="#000" stroke-width="0" rx=".721" ry=".721" transform="matrix(0.999999786532018 0 0 0.999999786532018 4.28265025931171 93.5171481526305)"/><ellipse cx=".721" cy=".721" fill="#000" stroke-width="0" rx=".721" ry=".721" transform="matrix(0.999999787560407 0 0 0.999999787560407 7.29244651698213 91.2469454194102)"/><ellipse cx=".721" cy=".721" fill="#000" stroke-width="0" rx=".721" ry=".721" transform="matrix(0.999999808207962 0 0 0.999999808207962 10.2122429134087 89.1867448869227)"/><ellipse cx=".721" cy=".721" fill="#000" stroke-width="0" rx=".721" ry=".721" transform="matrix(0.999999793391896 0 0 0.999999793391896 12.9520392993093 87.3965406585279)"/><ellipse cx=".721" cy=".721" fill="#000" stroke-width="0" rx=".721" ry=".721" transform="matrix(0.999999770170332 0 0 0.999999770170332 15.21183543243 86.0563355913459)"/><ellipse cx=".721" cy=".721" fill="#000" stroke-width="0" rx=".721" ry=".721" transform="matrix(0.999999773239561 0 0 0.999999773239561 17.5916322023658 84.8661327960425)"/><ellipse cx=".721" cy=".721" fill="#000" stroke-width="0" rx=".721" ry=".721" transform="matrix(0.999999781095699 0 0 0.999999781095699 19.4614287271883 84.0959305390724)"/><ellipse cx=".721" cy=".721" fill="#000" stroke-width="0" rx=".721" ry=".721" transform="matrix(0.999999761095281 0 0 0.999999761095281 21.4212246674169 83.7757283220259)"/><ellipse cx=".721" cy=".721" fill="#000" stroke-width="0" rx=".721" ry=".721" transform="matrix(0.999999759270248 0 0 0.999999759270248 24.0500625137158 86.2077606009305)"/><ellipse cx=".721" cy=".721" fill="#000" stroke-width="0" rx=".721" ry=".721" transform="matrix(0.999999781382229 0 0 0.999999781382229 25.8073969605224 85.5783309059244)"/><ellipse cx=".721" cy=".721" fill="#000" stroke-width="0" rx=".721" ry=".721" transform="matrix(0.999999781382229 0 0 0.999999781382229 22.1312558038219 87.219360931678)"/><ellipse cx=".721" cy=".721" fill="#000" stroke-width="0" rx=".721" ry=".721" transform="matrix(0.999999781382229 0 0 0.999999781382229 27.473279790198 85.376234594396)"/><ellipse cx=".721" cy=".721" fill="#000" stroke-width="0" rx=".721" ry=".721" transform="matrix(0.999999781382229 0 0 0.999999781382229 22.1860329508393 92.7405015348978)"/><ellipse cx=".721" cy=".721" fill="#000" stroke-width="0" rx=".721" ry=".721" transform="matrix(0.999999781382229 0 0 0.999999781382229 24.6184231188916 90.9499131806355)"/><ellipse cx=".721" cy=".721" fill="#000" stroke-width="0" rx=".721" ry=".721" transform="matrix(0.999999781382229 0 0 0.999999781382229 26.755960541406 89.4381115612294)"/><ellipse cx=".721" cy=".721" fill="#000" stroke-width="0" rx=".721" ry=".721" transform="matrix(0.999999781382229 0 0 0.999999781382229 28.7332036225683 88.1714570756342)"/><ellipse cx=".721" cy=".721" fill="#000" stroke-width="0" rx=".721" ry=".721" transform="matrix(0.999999781382229 0 0 0.999999781382229 30.4507411389232 87.4893608936804)"/><ellipse cx=".721" cy=".721" fill="#000" stroke-width="0" rx=".721" ry=".721" transform="matrix(0.999999781382229 0 0 0.999999781382229 32.2004106766406 87.0311986474226)"/><ellipse cx=".721" cy=".721" fill="#000" stroke-width="0" rx=".721" ry=".721" transform="matrix(0.999999781382229 0 0 0.999999781382229 33.4803746964709 87.0675947249154)"/><ellipse cx=".721" cy=".721" fill="#000" stroke-width="0" rx=".721" ry=".721" transform="matrix(0.999999781277369 0 0 0.999999781277369 24.656194880495 97.7444909060007)"/><ellipse cx=".721" cy=".721" fill="#000" stroke-width="0" rx=".721" ry=".721" transform="matrix(0.999999781277369 0 0 0.999999781277369 27.1449455053689 95.3466234068962)"/><ellipse cx=".721" cy=".721" fill="#000" stroke-width="0" rx=".721" ry=".721" transform="matrix(0.999999782305758 0 0 0.999999782305758 29.3910666151018 93.3734054592081)"/><ellipse cx=".721" cy=".721" fill="#000" stroke-width="0" rx=".721" ry=".721" transform="matrix(0.999999802953314 0 0 0.999999802953314 31.419908675377 91.695042503607)"/><ellipse cx=".721" cy=".721" fill="#000" stroke-width="0" rx=".721" ry=".721" transform="matrix(0.999999788137247 0 0 0.999999788137247 33.523309103446 90.2442494544509)"/><ellipse cx=".721" cy=".721" fill="#000" stroke-width="0" rx=".721" ry=".721" transform="matrix(0.999999764915683 0 0 0.999999764915683 35.1679224793718 89.2646687622579)"/><ellipse cx=".721" cy=".721" fill="#000" stroke-width="0" rx=".721" ry=".721" transform="matrix(0.999999767984912 0 0 0.999999767984912 36.7204045103371 88.6684355204147)"/><ellipse cx=".721" cy=".721" fill="#000" stroke-width="0" rx=".721" ry=".721" transform="matrix(0.99999977584105 0 0 0.99999977584105 38.2507898555026 88.4285632203541)"/><ellipse cx=".721" cy=".721" fill="#000" stroke-width="0" rx=".721" ry=".721" transform="matrix(0.999999755840636 0 0 0.999999755840636 39.6378294363416 88.6174777597382)"/><ellipse cx=".721" cy=".721" fill="#000" stroke-width="0" rx=".721" ry=".721" transform="matrix(0.999999781382229 0 0 0.999999781382229 5.90392288224821 99.8863542094414)"/><ellipse cx=".721" cy=".721" fill="#000" stroke-width="0" rx=".721" ry=".721" transform="matrix(0.999999781382229 0 0 0.999999781382229 9.18484092297009 96.9926795139931)"/><ellipse cx=".721" cy=".721" fill="#000" stroke-width="0" rx=".721" ry=".721" transform="matrix(0.999999781382229 0 0 0.999999781382229 12.1284798831556 94.335365169635)"/><ellipse cx=".721" cy=".721" fill="#000" stroke-width="0" rx=".721" ry=".721" transform="matrix(0.999999781277369 0 0 0.999999781277369 2.4556022928062 103.129647994546)"/><ellipse cx=".721" cy=".721" fill="#000" stroke-width="0" rx=".721" ry=".721" transform="matrix(0.999999781277369 0 0 0.999999781277369 10.8628354560088 103.447070003016)"/><ellipse cx=".721" cy=".721" fill="#000" stroke-width="0" rx=".721" ry=".721" transform="matrix(0.999999782305758 0 0 0.999999782305758 14.0635504906062 100.349552513174)"/><ellipse cx=".721" cy=".721" fill="#000" stroke-width="0" rx=".721" ry=".721" transform="matrix(0.999999802953314 0 0 0.999999802953314 21.9684486821898 100.601590703616)"/><ellipse cx=".721" cy=".721" fill="#000" stroke-width="0" rx=".721" ry=".721" transform="matrix(0.999999788137247 0 0 0.999999788137247 16.9654273480243 97.4113153378495)"/><ellipse cx=".721" cy=".721" fill="#000" stroke-width="0" rx=".721" ry=".721" transform="matrix(0.999999764915683 0 0 0.999999764915683 19.7343402499173 95.0316635172229)"/><ellipse cx=".721" cy=".721" fill="#000" stroke-width="0" rx=".721" ry=".721" transform="matrix(0.999999754060512 0 0 0.999999754060512 14.9844612776094 92.1001782680464)"/><ellipse cx=".721" cy=".721" fill="#000" stroke-width="0" rx=".721" ry=".721" transform="matrix(0.999999753147036 0 0 0.999999753147036 17.598227539688 90.0894666220113)"/><ellipse cx=".721" cy=".721" fill="#000" stroke-width="0" rx=".721" ry=".721" transform="matrix(0.999999753147036 0 0 0.999999753147036 19.8892530624631 88.392410679215)"/><ellipse cx=".721" cy=".721" fill="#000" stroke-width="0" rx=".721" ry=".721" transform="matrix(0.999999774314467 0 0 0.999999774314467 0.228801232813521 114.515300774218)"/><ellipse cx=".721" cy=".721" fill="#000" stroke-width="0" rx=".721" ry=".721" transform="matrix(0.999999775342856 0 0 0.999999775342856 3.76892743480588 110.696534527872)"/><ellipse cx=".721" cy=".721" fill="#000" stroke-width="0" rx=".721" ry=".721" transform="matrix(0.999999781174345 0 0 0.999999781174345 7.36720024215587 106.934622206738)"/><ellipse cx=".721" cy=".721" fill="#000" stroke-width="0" rx=".721" ry=".721" transform="matrix(0.999999784952951 0 0 0.999999784952951 18.9758869156743 103.6964066423)"/><ellipse cx=".721" cy=".721" fill="#000" stroke-width="0" rx=".721" ry=".721" transform="matrix(0.999999779803162 0 0 0.999999779803162 24.3171588492356 106.795613289613)"/><ellipse cx=".721" cy=".721" fill="#000" stroke-width="0" rx=".721" ry=".721" transform="matrix(0.999999779803162 0 0 0.999999779803162 27.0580769509931 103.631938631842)"/><ellipse cx=".721" cy=".721" fill="#000" stroke-width="0" rx=".721" ry=".721" transform="matrix(0.999999779698302 0 0 0.999999779698302 21.288838213737 110.428907021774)"/><ellipse cx=".721" cy=".721" fill="#000" stroke-width="0" rx=".721" ry=".721" transform="matrix(0.999999779698302 0 0 0.999999779698302 29.6060713862797 109.966329114194)"/><ellipse cx=".721" cy=".721" fill="#000" stroke-width="0" rx=".721" ry=".721" transform="matrix(0.999999780726692 0 0 0.999999780726692 32.3567864652136 106.448811675341)"/><ellipse cx=".721" cy=".721" fill="#000" stroke-width="0" rx=".721" ry=".721" transform="matrix(0.9999997727354 0 0 0.9999997727354 18.0720372786573 114.404560338893)"/><ellipse cx=".721" cy=".721" fill="#000" stroke-width="0" rx=".721" ry=".721" transform="matrix(0.99999977376379 0 0 0.99999977376379 23.6071633279055 117.920793544578)"/><ellipse cx=".721" cy=".721" fill="#000" stroke-width="0" rx=".721" ry=".721" transform="matrix(0.999999779595278 0 0 0.999999779595278 26.7104361135635 113.873881266312)"/><ellipse cx=".721" cy=".721" fill="#000" stroke-width="0" rx=".721" ry=".721" transform="matrix(0.999999781461739 0 0 0.999999781461739 15.9895209947926 107.085446043989)"/><ellipse cx=".721" cy=".721" fill="#000" stroke-width="0" rx=".721" ry=".721" transform="matrix(0.999999781356879 0 0 0.999999781356879 12.6612003967003 110.673739788541)"/><ellipse cx=".721" cy=".721" fill="#000" stroke-width="0" rx=".721" ry=".721" transform="matrix(0.999999774393977 0 0 0.999999774393977 9.15939949659283 114.694393105888)"/><ellipse cx=".721" cy=".721" fill="#000" stroke-width="0" rx=".721" ry=".721" transform="matrix(0.999999775422366 0 0 0.999999775422366 14.6195255661579 118.540626270735)"/><ellipse cx=".721" cy=".721" fill="#000" stroke-width="0" rx=".721" ry=".721" transform="matrix(0.999999739276939 0 0 0.999999739276939 5.34419627440857 118.799186577897)"/><ellipse cx=".721" cy=".721" fill="#000" stroke-width="0" rx=".721" ry=".721" transform="matrix(0.999999721383756 0 0 0.999999721383756 41.4840745011631 90.3298350218106)"/><ellipse cx=".721" cy=".721" fill="#000" stroke-width="0" rx=".721" ry=".721" transform="matrix(0.999999743495736 0 0 0.999999743495736 42.7959316623461 89.8807175583598)"/><ellipse cx=".721" cy=".721" fill="#000" stroke-width="0" rx=".721" ry=".721" transform="matrix(0.999999743495736 0 0 0.999999743495736 44.0587636116763 89.8483268617432)"/><ellipse cx=".721" cy=".721" fill="#000" stroke-width="0" rx=".721" ry=".721" transform="matrix(0.999999743495736 0 0 0.999999743495736 41.2357268360632 95.8993022362403)"/><ellipse cx=".721" cy=".721" fill="#000" stroke-width="0" rx=".721" ry=".721" transform="matrix(0.999999743495736 0 0 0.999999743495736 43.0868859782249 94.1541554746255)"/><ellipse cx=".721" cy=".721" fill="#000" stroke-width="0" rx=".721" ry=".721" transform="matrix(0.999999743495736 0 0 0.999999743495736 46.3051012616965 91.9329069934345)"/><ellipse cx=".721" cy=".721" fill="#000" stroke-width="0" rx=".721" ry=".721" transform="matrix(0.999999743495736 0 0 0.999999743495736 47.6301944889849 91.2614174379715)"/><ellipse cx=".721" cy=".721" fill="#000" stroke-width="0" rx=".721" ry=".721" transform="matrix(0.999999743495736 0 0 0.999999743495736 48.9131735318788 91.1744862317697)"/><ellipse cx=".721" cy=".721" fill="#000" stroke-width="0" rx=".721" ry=".721" transform="matrix(0.999999743495736 0 0 0.999999743495736 49.8643328831117 91.4124077202055)"/><ellipse cx=".721" cy=".721" fill="#000" stroke-width="0" rx=".721" ry=".721" transform="matrix(0.999999743390876 0 0 0.999999743390876 42.3309069996849 102.827189218517)"/><ellipse cx=".721" cy=".721" fill="#000" stroke-width="0" rx=".721" ry=".721" transform="matrix(0.999999743390876 0 0 0.999999743390876 44.4596575822849 100.189321844938)"/><ellipse cx=".721" cy=".721" fill="#000" stroke-width="0" rx=".721" ry=".721" transform="matrix(0.999999744419264 0 0 0.999999744419264 46.3583879506834 97.8773172239772)"/><ellipse cx=".721" cy=".721" fill="#000" stroke-width="0" rx=".721" ry=".721" transform="matrix(0.999999765066821 0 0 0.999999765066821 48.0690319347939 96.0504619322906)"/><ellipse cx=".721" cy=".721" fill="#000" stroke-width="0" rx=".721" ry=".721" transform="matrix(0.999999750250753 0 0 0.999999750250753 49.6845286842479 94.5678491381702)"/><ellipse cx=".721" cy=".721" fill="#000" stroke-width="0" rx=".721" ry=".721" transform="matrix(0.99999972702919 0 0 0.99999972702919 52.4216218552555 92.6124612133481)"/><ellipse cx=".721" cy=".721" fill="#000" stroke-width="0" rx=".721" ry=".721" transform="matrix(0.999999730098419 0 0 0.999999730098419 53.7725784150809 92.3768524161437)"/><ellipse cx=".721" cy=".721" fill="#000" stroke-width="0" rx=".721" ry=".721" transform="matrix(0.999999737954558 0 0 0.999999737954558 54.8044534717852 92.6036705537057)"/><ellipse cx=".721" cy=".721" fill="#000" stroke-width="0" rx=".721" ry=".721" transform="matrix(0.999999717954144 0 0 0.999999717954144 55.9475411851583 93.1001765047395)"/><ellipse cx=".721" cy=".721" fill="#000" stroke-width="0" rx=".721" ry=".721" transform="matrix(0.999999731221762 0 0 0.999999731221762 51.17850328971 93.431843117064)"/><ellipse cx=".721" cy=".721" fill="#000" stroke-width="0" rx=".721" ry=".721" transform="matrix(0.999999731221762 0 0 0.999999731221762 44.7585044605846 92.9593432979338)"/><ellipse cx=".721" cy=".721" fill="#000" stroke-width="0" rx=".721" ry=".721" transform="matrix(0.99999970814964 0 0 0.99999970814964 34.8727480643717 103.278344035775)"/><ellipse cx=".721" cy=".721" fill="#000" stroke-width="0" rx=".721" ry=".721" transform="matrix(0.99999970814964 0 0 0.99999970814964 37.2264985488682 100.460476773625)"/><ellipse cx=".721" cy=".721" fill="#000" stroke-width="0" rx=".721" ry=".721" transform="matrix(0.999999709178027 0 0 0.999999709178027 39.3052288318857 97.9984722495317)"/><ellipse cx=".721" cy=".721" fill="#000" stroke-width="0" rx=".721" ry=".721" transform="matrix(0.99999970814964 0 0 0.99999970814964 36.3094740262574 93.7806020746875)"/><ellipse cx=".721" cy=".721" fill="#000" stroke-width="0" rx=".721" ry=".721" transform="matrix(0.99999970814964 0 0 0.99999970814964 38.2237776296336 92.2890170037432)"/><ellipse cx=".721" cy=".721" fill="#000" stroke-width="0" rx=".721" ry=".721" transform="matrix(0.999999709178027 0 0 0.999999709178027 39.9575079645679 91.0945122990025)"/><ellipse cx=".721" cy=".721" fill="#000" stroke-width="0" rx=".721" ry=".721" transform="matrix(0.99999970814964 0 0 0.99999970814964 29.6543008541684 100.575694947026)"/><ellipse cx=".721" cy=".721" fill="#000" stroke-width="0" rx=".721" ry=".721" transform="matrix(0.99999970814964 0 0 0.99999970814964 32.0742645288621 97.994598427792)"/><ellipse cx=".721" cy=".721" fill="#000" stroke-width="0" rx=".721" ry=".721" transform="matrix(0.999999709178027 0 0 0.999999709178027 34.2911928270457 95.7250202878694)"/><ellipse cx=".721" cy=".721" fill="#000" stroke-width="0" rx=".721" ry=".721" transform="matrix(0.999999792993045 0 0 0.999999792993045 35.1447156864249 112.943987334201)"/><ellipse cx=".721" cy=".721" fill="#000" stroke-width="0" rx=".721" ry=".721" transform="matrix(0.999999794021435 0 0 0.999999794021435 37.7893648024871 109.171911449924)"/><ellipse cx=".721" cy=".721" fill="#000" stroke-width="0" rx=".721" ry=".721" transform="matrix(0.999999787058533 0 0 0.999999787058533 29.3888227069092 121.047827430596)"/><ellipse cx=".721" cy=".721" fill="#000" stroke-width="0" rx=".721" ry=".721" transform="matrix(0.999999792890021 0 0 0.999999792890021 32.4151463708939 116.915179137934)"/><ellipse cx=".721" cy=".721" fill="#000" stroke-width="0" rx=".721" ry=".721" transform="matrix(0.999999721444383 0 0 0.999999721444383 40.1356208359877 105.810524969213)"/><ellipse cx=".721" cy=".721" fill="#000" stroke-width="0" rx=".721" ry=".721" transform="matrix(0.999999749924407 0 0 0.999999749924407 47.7181991694864 105.126198584138)"/><ellipse cx=".721" cy=".721" fill="#000" stroke-width="0" rx=".721" ry=".721" transform="matrix(0.999999749924407 0 0 0.999999749924407 49.5919497860118 102.353331203922)"/><ellipse cx=".721" cy=".721" fill="#000" stroke-width="0" rx=".721" ry=".721" transform="matrix(0.999999750952795 0 0 0.999999750952795 51.4756801499695 99.8463265846646)"/><ellipse cx=".721" cy=".721" fill="#000" stroke-width="0" rx=".721" ry=".721" transform="matrix(0.999999771600352 0 0 0.999999771600352 53.1113241466383 97.8244712948475)"/><ellipse cx=".721" cy=".721" fill="#000" stroke-width="0" rx=".721" ry=".721" transform="matrix(0.999999799526576 0 0 0.999999799526576 40.7870077892582 115.737996727065)"/><ellipse cx=".721" cy=".721" fill="#000" stroke-width="0" rx=".721" ry=".721" transform="matrix(0.999999800554966 0 0 0.999999800554966 43.2666569355514 111.815920829916)"/><ellipse cx=".721" cy=".721" fill="#000" stroke-width="0" rx=".721" ry=".721" transform="matrix(0.999999793592064 0 0 0.999999793592064 62.5607030821477 114.978099602787)"/><ellipse cx=".721" cy=".721" fill="#000" stroke-width="0" rx=".721" ry=".721" transform="matrix(0.999999799423552 0 0 0.999999799423552 38.1324384500062 120.039188530839)"/><ellipse cx=".721" cy=".721" fill="#000" stroke-width="0" rx=".721" ry=".721" transform="matrix(0.999999727977914 0 0 0.999999727977914 45.5229129914462 108.274534341375)"/><ellipse cx=".721" cy=".721" fill="#000" stroke-width="0" rx=".721" ry=".721" transform="matrix(0.999999749924407 0 0 0.999999749924407 53.0881988304956 107.256198461506)"/><ellipse cx=".721" cy=".721" fill="#000" stroke-width="0" rx=".721" ry=".721" transform="matrix(0.999999749924407 0 0 0.999999749924407 54.9919494405278 104.243331093232)"/><ellipse cx=".721" cy=".721" fill="#000" stroke-width="0" rx=".721" ry=".721" transform="matrix(0.999999750952795 0 0 0.999999750952795 56.7106798321508 101.676326472493)"/><ellipse cx=".721" cy=".721" fill="#000" stroke-width="0" rx=".721" ry=".721" transform="matrix(0.999999771600352 0 0 0.999999771600352 58.2863238355524 99.4894711905087)"/><ellipse cx=".721" cy=".721" fill="#000" stroke-width="0" rx=".721" ry=".721" transform="matrix(0.999999799526576 0 0 0.999999799526576 46.5770074297127 118.482996576571)"/><ellipse cx=".721" cy=".721" fill="#000" stroke-width="0" rx=".721" ry=".721" transform="matrix(0.999999800554966 0 0 0.999999800554966 48.966656578381 114.365920688384)"/><ellipse cx=".721" cy=".721" fill="#000" stroke-width="0" rx=".721" ry=".721" transform="matrix(0.999999793592064 0 0 0.999999793592064 64.3488697381142 111.213768817535)"/><ellipse cx=".721" cy=".721" fill="#000" stroke-width="0" rx=".721" ry=".721" transform="matrix(0.999999799423552 0 0 0.999999799423552 60.6624370856613 118.929188618125)"/><ellipse cx=".721" cy=".721" fill="#000" stroke-width="0" rx=".721" ry=".721" transform="matrix(0.999999727977914 0 0 0.999999727977914 51.0879126407348 110.644534207351)"/><ellipse cx=".721" cy=".721" fill="#000" stroke-width="0" rx=".721" ry=".721" transform="matrix(0.999999749924407 0 0 0.999999749924407 60.4231983445518 106.191198560981)"/><ellipse cx=".721" cy=".721" fill="#000" stroke-width="0" rx=".721" ry=".721" transform="matrix(0.999999749924407 0 0 0.999999749924407 62.1019489823609 103.493331175674)"/><ellipse cx=".721" cy=".721" fill="#000" stroke-width="0" rx=".721" ry=".721" transform="matrix(0.999999750952795 0 0 0.999999750952795 63.4456794105083 101.076326500469)"/><ellipse cx=".721" cy=".721" fill="#000" stroke-width="0" rx=".721" ry=".721" transform="matrix(0.999999771600352 0 0 0.999999771600352 67.346323279759 104.994470866216)"/><ellipse cx=".721" cy=".721" fill="#000" stroke-width="0" rx=".721" ry=".721" transform="matrix(0.999999799526576 0 0 0.999999799526576 54.7070068494247 116.817996695956)"/><ellipse cx=".721" cy=".721" fill="#000" stroke-width="0" rx=".721" ry=".721" transform="matrix(0.999999800554966 0 0 0.999999800554966 56.8116560323268 112.925920798047)"/><ellipse cx=".721" cy=".721" fill="#000" stroke-width="0" rx=".721" ry=".721" transform="matrix(0.999999793592064 0 0 0.999999793592064 65.8924065936117 107.862600357731)"/><ellipse cx=".721" cy=".721" fill="#000" stroke-width="0" rx=".721" ry=".721" transform="matrix(0.999999799423552 0 0 0.999999799423552 52.5474374637458 120.909188514621)"/><ellipse cx=".721" cy=".721" fill="#000" stroke-width="0" rx=".721" ry=".721" transform="matrix(0.999999727977914 0 0 0.999999727977914 58.7679121169506 109.234534325663)"/><ellipse cx=".721" cy=".721" fill="#000" stroke-width="0" rx=".721" ry=".721" transform="matrix(0.999999692547005 0 0 0.999999692547005 55.972194717658 94.9653900186805)"/><ellipse cx=".721" cy=".721" fill="#000" stroke-width="0" rx=".721" ry=".721" transform="matrix(0.999999695616235 0 0 0.999999695616235 58.3581511713342 93.5147812995247)"/><ellipse cx=".721" cy=".721" fill="#000" stroke-width="0" rx=".721" ry=".721" transform="matrix(0.999999703472375 0 0 0.999999703472375 59.2850261985001 93.5315994413513)"/><ellipse cx=".721" cy=".721" fill="#000" stroke-width="0" rx=".721" ry=".721" transform="matrix(0.999999683471961 0 0 0.999999683471961 60.428113872457 94.0281053752642)"/><ellipse cx=".721" cy=".721" fill="#000" stroke-width="0" rx=".721" ry=".721" transform="matrix(0.999999696739579 0 0 0.999999696739579 54.6990761967045 96.1297718742872)"/><ellipse cx=".721" cy=".721" fill="#000" stroke-width="0" rx=".721" ry=".721" transform="matrix(0.999999662356274 0 0 0.999999662356274 57.2869891872487 94.1051867347878)"/><ellipse cx=".721" cy=".721" fill="#000" stroke-width="0" rx=".721" ry=".721" transform="matrix(0.999999708204649 0 0 0.999999708204649 59.7500069749353 97.7489658007984)"/><ellipse cx=".721" cy=".721" fill="#000" stroke-width="0" rx=".721" ry=".721" transform="matrix(0.999999670653236 0 0 0.999999670653236 62.3007921382294 95.3118925921504)"/><ellipse cx=".721" cy=".721" fill="#000" stroke-width="0" rx=".721" ry=".721" transform="matrix(0.999999673722466 0 0 0.999999673722466 64.1917485759948 94.5662838530159)"/><ellipse cx=".721" cy=".721" fill="#000" stroke-width="0" rx=".721" ry=".721" transform="matrix(0.999999681578606 0 0 0.999999681578606 64.9536235949768 94.7481019823653)"/><ellipse cx=".721" cy=".721" fill="#000" stroke-width="0" rx=".721" ry=".721" transform="matrix(0.999999661578192 0 0 0.999999661578192 65.916711257117 95.3046079010045)"/><ellipse cx=".721" cy=".721" fill="#000" stroke-width="0" rx=".721" ry=".721" transform="matrix(0.99999967484581 0 0 0.99999967484581 61.0576736429476 96.1912744431799)"/><ellipse cx=".721" cy=".721" fill="#000" stroke-width="0" rx=".721" ry=".721" transform="matrix(0.999999640462506 0 0 0.999999640462506 63.4055865944455 94.6916893094778)"/><ellipse cx=".721" cy=".721" fill="#000" stroke-width="0" rx=".721" ry=".721" transform="matrix(0.999999643146979 0 0 0.999999643146979 67.1681004950875 96.4940807674247)"/><ellipse cx=".721" cy=".721" fill="#000" stroke-width="0" rx=".721" ry=".721" transform="matrix(0.999999646216209 0 0 0.999999646216209 69.0272370778183 95.5257334276487)"/><ellipse cx=".721" cy=".721" fill="#000" stroke-width="0" rx=".721" ry=".721" transform="matrix(0.999999654072348 0 0 0.999999654072348 69.789112075844 95.707551551997)"/><ellipse cx=".721" cy=".721" fill="#000" stroke-width="0" rx=".721" ry=".721" transform="matrix(0.999999634071934 0 0 0.999999634071934 70.7521997114932 96.2640574553288)"/><ellipse cx=".721" cy=".721" fill="#000" stroke-width="0" rx=".721" ry=".721" transform="matrix(0.999999647339553 0 0 0.999999647339553 64.7794691252254 99.1023385584336)"/><ellipse cx=".721" cy=".721" fill="#000" stroke-width="0" rx=".721" ry=".721" transform="matrix(0.999999612956249 0 0 0.999999612956249 68.283501521922 95.76781149174)"/><ellipse cx=".721" cy=".721" fill="#000" stroke-width="0" rx=".721" ry=".721" transform="matrix(0.999999643146979 0 0 0.999999643146979 72.1327195062698 97.6628659287795)"/><ellipse cx=".721" cy=".721" fill="#000" stroke-width="0" rx=".721" ry=".721" transform="matrix(0.999999646216209 0 0 0.999999646216209 73.9936758939938 96.4672572397285)"/><ellipse cx=".721" cy=".721" fill="#000" stroke-width="0" rx=".721" ry=".721" transform="matrix(0.999999654072348 0 0 0.999999654072348 74.8155508880762 96.5440753709776)"/><ellipse cx=".721" cy=".721" fill="#000" stroke-width="0" rx=".721" ry=".721" transform="matrix(0.999999634071934 0 0 0.999999634071934 75.658638531612 96.8605812900825)"/><ellipse cx=".721" cy=".721" fill="#000" stroke-width="0" rx=".721" ry=".721" transform="matrix(0.999999647339553 0 0 0.999999647339553 71.2346010225076 98.7972477388614)"/><ellipse cx=".721" cy=".721" fill="#000" stroke-width="0" rx=".721" ry=".721" transform="matrix(0.999999612956249 0 0 0.999999612956249 73.1925139350546 96.7276626838687)"/><ellipse cx=".721" cy=".721" fill="#000" stroke-width="0" rx=".721" ry=".721" transform="matrix(0.999999643146979 0 0 0.999999643146979 78.0216441406495 97.7448864140199)"/><ellipse cx=".721" cy=".721" fill="#000" stroke-width="0" rx=".721" ry=".721" transform="matrix(0.999999646216209 0 0 0.999999646216209 79.447600539858 97.2242776888833)"/><ellipse cx=".721" cy=".721" fill="#000" stroke-width="0" rx=".721" ry=".721" transform="matrix(0.999999654072348 0 0 0.999999654072348 80.2094755378836 97.4060958132316)"/><ellipse cx=".721" cy=".721" fill="#000" stroke-width="0" rx=".721" ry=".721" transform="matrix(0.999999634071934 0 0 0.999999634071934 80.8875631817801 98.1126017122228)"/><ellipse cx=".721" cy=".721" fill="#000" stroke-width="0" rx=".721" ry=".721" transform="matrix(0.999999647339553 0 0 0.999999647339553 77.2585256656712 98.6242682408609)"/><ellipse cx=".721" cy=".721" fill="#000" stroke-width="0" rx=".721" ry=".721" transform="matrix(0.999999612956249 0 0 0.999999612956249 78.661438579933 97.3496831418958)"/><ellipse cx=".721" cy=".721" fill="#000" stroke-width="0" rx=".721" ry=".721" transform="matrix(0.999999618416519 0 0 0.999999618416519 66.0798777677473 97.5958593340685)"/><ellipse cx=".721" cy=".721" fill="#000" stroke-width="0" rx=".721" ry=".721" transform="matrix(0.999999654225996 0 0 0.999999654225996 70.0593978254784 100.517045264344)"/><ellipse cx=".721" cy=".721" fill="#000" stroke-width="0" rx=".721" ry=".721" transform="matrix(0.999999654225996 0 0 0.999999654225996 68.8293979063159 102.572045129286)"/><ellipse cx=".721" cy=".721" fill="#000" stroke-width="0" rx=".721" ry=".721" transform="matrix(0.999999716398208 0 0 0.999999716398208 74.114211383083 103.897790689698)"/><ellipse cx=".721" cy=".721" fill="#000" stroke-width="0" rx=".721" ry=".721" transform="matrix(0.999999716398208 0 0 0.999999716398208 75.3303526813979 101.634040245329)"/><ellipse cx=".721" cy=".721" fill="#000" stroke-width="0" rx=".721" ry=".721" transform="matrix(0.999999717426596 0 0 0.999999717426596 76.1746360946483 100.017990185168)"/><ellipse cx=".721" cy=".721" fill="#000" stroke-width="0" rx=".721" ry=".721" transform="matrix(0.999999760065864 0 0 0.999999760065864 87.754658627715 117.234762580261)"/><ellipse cx=".721" cy=".721" fill="#000" stroke-width="0" rx=".721" ry=".721" transform="matrix(0.999999716398208 0 0 0.999999716398208 78.4171546861476 107.877861788609)"/><ellipse cx=".721" cy=".721" fill="#000" stroke-width="0" rx=".721" ry=".721" transform="matrix(0.999999716398208 0 0 0.999999716398208 79.5859052731469 105.164994504695)"/><ellipse cx=".721" cy=".721" fill="#000" stroke-width="0" rx=".721" ry=".721" transform="matrix(0.999999717426596 0 0 0.999999717426596 80.659635642945 102.8829899542)"/><ellipse cx=".721" cy=".721" fill="#000" stroke-width="0" rx=".721" ry=".721" transform="matrix(0.999999767028767 0 0 0.999999767028767 75.8706124847996 114.582583799603)"/><ellipse cx=".721" cy=".721" fill="#000" stroke-width="0" rx=".721" ry=".721" transform="matrix(0.999999760065864 0 0 0.999999760065864 88.7778252661889 113.455431922045)"/><ellipse cx=".721" cy=".721" fill="#000" stroke-width="0" rx=".721" ry=".721" transform="matrix(0.999999765897353 0 0 0.999999765897353 86.5613926455668 120.975851474789)"/><ellipse cx=".721" cy=".721" fill="#000" stroke-width="0" rx=".721" ry=".721" transform="matrix(0.999999694451716 0 0 0.999999694451716 77.1668685218235 111.071197431678)"/><ellipse cx=".721" cy=".721" fill="#000" stroke-width="0" rx=".721" ry=".721" transform="matrix(0.999999716398208 0 0 0.999999716398208 85.1221539892542 106.212861957089)"/><ellipse cx=".721" cy=".721" fill="#000" stroke-width="0" rx=".721" ry=".721" transform="matrix(0.999999716398208 0 0 0.999999716398208 85.9909046157364 103.889994641419)"/><ellipse cx=".721" cy=".721" fill="#000" stroke-width="0" rx=".721" ry=".721" transform="matrix(0.999999717426596 0 0 0.999999717426596 86.8396350263062 102.027990016444)"/><ellipse cx=".721" cy=".721" fill="#000" stroke-width="0" rx=".721" ry=".721" transform="matrix(0.999999738074153 0 0 0.999999738074153 91.4302787264879 104.836134312436)"/><ellipse cx=".721" cy=".721" fill="#000" stroke-width="0" rx=".721" ry=".721" transform="matrix(0.999999766000377 0 0 0.999999766000377 81.7459625558987 116.029659780744)"/><ellipse cx=".721" cy=".721" fill="#000" stroke-width="0" rx=".721" ry=".721" transform="matrix(0.999999767028767 0 0 0.999999767028767 82.8756117223527 112.332584002499)"/><ellipse cx=".721" cy=".721" fill="#000" stroke-width="0" rx=".721" ry=".721" transform="matrix(0.999999760065864 0 0 0.999999760065864 90.6363620524548 107.29926373027)"/><ellipse cx=".721" cy=".721" fill="#000" stroke-width="0" rx=".721" ry=".721" transform="matrix(0.999999765897353 0 0 0.999999765897353 80.5313931901742 120.060851465577)"/><ellipse cx=".721" cy=".721" fill="#000" stroke-width="0" rx=".721" ry=".721" transform="matrix(0.999999694451716 0 0 0.999999694451716 84.0518677846809 109.106197628065)"/><ellipse cx=".721" cy=".721" fill="#000" stroke-width="0" rx=".721" ry=".721" transform="matrix(0.999999620699802 0 0 0.999999620699802 89.7033534814787 110.048708232977)"/><ellipse cx=".721" cy=".721" fill="#000" stroke-width="0" rx=".721" ry=".721" transform="matrix(0.999999744552543 0 0 0.999999744552543 70.0353241953787 112.996952358811)"/><ellipse cx=".721" cy=".721" fill="#000" stroke-width="0" rx=".721" ry=".721" transform="matrix(0.999999744552543 0 0 0.999999744552543 71.4522597441436 109.423540568194)"/><ellipse cx=".721" cy=".721" fill="#000" stroke-width="0" rx=".721" ry=".721" transform="matrix(0.999999750384031 0 0 0.999999750384031 68.4870761103784 116.799548772584)"/><ellipse cx=".721" cy=".721" fill="#000" stroke-width="0" rx=".721" ry=".721" transform="matrix(0.999999682646714 0 0 0.999999682646714 72.9378007193569 106.517615216086)"/><ellipse cx=".721" cy=".721" fill="#000" stroke-width="0" rx=".721" ry=".721" transform="matrix(0.999999722628805 0 0 0.999999722628805 74.4068701001588 118.549345053957)"/><ellipse cx=".721" cy=".721" fill="#000" stroke-width="0" rx=".721" ry=".721" transform="matrix(0.999999714000997 0 0 0.999999714000997 66.6766666050976 120.989140219043)"/><ellipse cx=".721" cy=".721" fill="#000" stroke-width="0" rx=".721" ry=".721" transform="matrix(0.999999650708695 0 0 0.999999650708695 83.0650278195078 98.5167420729309)"/><ellipse cx=".721" cy=".721" fill="#000" stroke-width="0" rx=".721" ry=".721" transform="matrix(0.999999653777925 0 0 0.999999653777925 84.2809842411539 97.8761333505175)"/><ellipse cx=".721" cy=".721" fill="#000" stroke-width="0" rx=".721" ry=".721" transform="matrix(0.999999661634065 0 0 0.999999661634065 85.0428592449407 98.0579514762407)"/><ellipse cx=".721" cy=".721" fill="#000" stroke-width="0" rx=".721" ry=".721" transform="matrix(0.999999641633651 0 0 0.999999641633651 85.5559469031222 98.6744573855693)"/><ellipse cx=".721" cy=".721" fill="#000" stroke-width="0" rx=".721" ry=".721" transform="matrix(0.999999654901269 0 0 0.999999654901269 82.3769093345965 99.5761238964315)"/><ellipse cx=".721" cy=".721" fill="#000" stroke-width="0" rx=".721" ry=".721" transform="matrix(0.999999620517966 0 0 0.999999620517966 83.4948222752843 98.0015388044785)"/><ellipse cx=".721" cy=".721" fill="#000" stroke-width="0" rx=".721" ry=".721" transform="matrix(0.999999724988313 0 0 0.999999724988313 81.5930197387275 100.954845852109)"/><ellipse cx=".721" cy=".721" fill="#000" stroke-width="0" rx=".721" ry=".721" transform="matrix(0.999999678501648 0 0 0.999999678501648 88.2633048031253 99.2272577750826)"/><ellipse cx=".721" cy=".721" fill="#000" stroke-width="0" rx=".721" ry=".721" transform="matrix(0.999999681570878 0 0 0.999999681570878 89.3292612668916 98.4066490448549)"/><ellipse cx=".721" cy=".721" fill="#000" stroke-width="0" rx=".721" ry=".721" transform="matrix(0.999999689427017 0 0 0.999999689427017 90.091136291853 98.5884671756314)"/><ellipse cx=".721" cy=".721" fill="#000" stroke-width="0" rx=".721" ry=".721" transform="matrix(0.999999669426602 0 0 0.999999669426602 90.4992239701222 99.1899731029269)"/><ellipse cx=".721" cy=".721" fill="#000" stroke-width="0" rx=".721" ry=".721" transform="matrix(0.999999682694222 0 0 0.999999682694222 87.6351862957592 100.376639623031)"/><ellipse cx=".721" cy=".721" fill="#000" stroke-width="0" rx=".721" ry=".721" transform="matrix(0.999999648310916 0 0 0.999999648310916 88.5880992766746 98.6220544973061)"/><ellipse cx=".721" cy=".721" fill="#000" stroke-width="0" rx=".721" ry=".721" transform="matrix(0.999999693926495 0 0 0.999999693926495 92.0905529546458 102.703609548549)"/><ellipse cx=".721" cy=".721" fill="#000" stroke-width="0" rx=".721" ry=".721" transform="matrix(0.999999655001548 0 0 0.999999655001548 93.5142226980085 99.9028773730052)"/><ellipse cx=".721" cy=".721" fill="#000" stroke-width="0" rx=".721" ry=".721" transform="matrix(0.999999658070778 0 0 0.999999658070778 94.4901791429149 99.037268665157)"/><ellipse cx=".721" cy=".721" fill="#000" stroke-width="0" rx=".721" ry=".721" transform="matrix(0.999999665926917 0 0 0.999999665926917 95.3420541437819 99.2640867885654)"/><ellipse cx=".721" cy=".721" fill="#000" stroke-width="0" rx=".721" ry=".721" transform="matrix(0.999999645926504 0 0 0.999999645926504 95.6151418217466 99.9630926950194)"/><ellipse cx=".721" cy=".721" fill="#000" stroke-width="0" rx=".721" ry=".721" transform="matrix(0.999999659194122 0 0 0.999999659194122 92.8186042100459 101.089759191364)"/><ellipse cx=".721" cy=".721" fill="#000" stroke-width="0" rx=".721" ry=".721" transform="matrix(0.999999624810817 0 0 0.999999624810817 93.8390171639251 99.2976741094509)"/><ellipse cx=".721" cy=".721" fill="#000" stroke-width="0" rx=".721" ry=".721" transform="matrix(0.999999735055656 0 0 0.999999735055656 96.8202544652855 105.608536387342)"/><ellipse cx=".721" cy=".721" fill="#000" stroke-width="0" rx=".721" ry=".721" transform="matrix(0.999999690907998 0 0 0.999999690907998 97.5017418935083 103.433585225775)"/><ellipse cx=".721" cy=".721" fill="#000" stroke-width="0" rx=".721" ry=".721" transform="matrix(0.999999651983051 0 0 0.999999651983051 98.6072136017061 100.452540841195)"/><ellipse cx=".721" cy=".721" fill="#000" stroke-width="0" rx=".721" ry=".721" transform="matrix(0.999999655052281 0 0 0.999999655052281 99.530137038522 99.555112332872)"/><ellipse cx=".721" cy=".721" fill="#000" stroke-width="0" rx=".721" ry=".721" transform="matrix(0.999999662908421 0 0 0.999999662908421 100.275946026529 99.7819304555958)"/><ellipse cx=".721" cy=".721" fill="#000" stroke-width="0" rx=".721" ry=".721" transform="matrix(0.999999642908008 0 0 0.999999642908008 100.368721486177 100.756707986692)"/><ellipse cx=".721" cy=".721" fill="#000" stroke-width="0" rx=".721" ry=".721" transform="matrix(0.999999656175625 0 0 0.999999656175625 98.1025139343637 101.628816054941)"/><ellipse cx=".721" cy=".721" fill="#000" stroke-width="0" rx=".721" ry=".721" transform="matrix(0.999999621792321 0 0 0.999999621792321 98.8789750614977 99.8155177763799)"/><ellipse cx=".721" cy=".721" fill="#000" stroke-width="0" rx=".721" ry=".721" transform="matrix(0.999999743608383 0 0 0.999999743608383 99.8611237945618 119.262957281602)"/><ellipse cx=".721" cy=".721" fill="#000" stroke-width="0" rx=".721" ry=".721" transform="matrix(0.999999743608383 0 0 0.999999743608383 93.7778681951495 118.262555972024)"/><ellipse cx=".721" cy=".721" fill="#000" stroke-width="0" rx=".721" ry=".721" transform="matrix(0.999999721616672 0 0 0.999999721616672 96.2939433882031 108.114400476062)"/><ellipse cx=".721" cy=".721" fill="#000" stroke-width="0" rx=".721" ry=".721" transform="matrix(0.999999743608383 0 0 0.999999743608383 95.4700267301729 111.027529809304)"/><ellipse cx=".721" cy=".721" fill="#000" stroke-width="0" rx=".721" ry=".721" transform="matrix(0.999999604242321 0 0 0.999999604242321 94.6079369922382 114.420961725495)"/><ellipse cx=".721" cy=".721" fill="#000" stroke-width="0" rx=".721" ry=".721" transform="matrix(0.999999719759268 0 0 0.999999719759268 102.878146266456 104.013525210187)"/><ellipse cx=".721" cy=".721" fill="#000" stroke-width="0" rx=".721" ry=".721" transform="matrix(0.999999728311994 0 0 0.999999728311994 100.578222079607 115.225046929908)"/><ellipse cx=".721" cy=".721" fill="#000" stroke-width="0" rx=".721" ry=".721" transform="matrix(0.999999706320284 0 0 0.999999706320284 102.309408795324 106.137551641677)"/><ellipse cx=".721" cy=".721" fill="#000" stroke-width="0" rx=".721" ry=".721" transform="matrix(0.999999728311994 0 0 0.999999728311994 101.867329768796 108.859762120908)"/><ellipse cx=".721" cy=".721" fill="#000" stroke-width="0" rx=".721" ry=".721" transform="matrix(0.999999588945935 0 0 0.999999588945935 101.259798456648 111.828929964191)"/><ellipse cx=".721" cy=".721" fill="#000" stroke-width="0" rx=".721" ry=".721" transform="matrix(0.999999665602736 0 0 0.999999665602736 103.714171446184 100.94929316641)"/><ellipse cx=".721" cy=".721" fill="#000" stroke-width="0" rx=".721" ry=".721" transform="matrix(0.999999668671966 0 0 0.999999668671966 104.607094898431 99.7518646744683)"/><ellipse cx=".721" cy=".721" fill="#000" stroke-width="0" rx=".721" ry=".721" transform="matrix(0.999999676528105 0 0 0.999999676528105 105.307903900886 100.293682770248)"/><ellipse cx=".721" cy=".721" fill="#000" stroke-width="0" rx=".721" ry=".721" transform="matrix(0.999999656527692 0 0 0.999999656527692 105.22067937896 100.953460344654)"/><ellipse cx=".721" cy=".721" fill="#000" stroke-width="0" rx=".721" ry=".721" transform="matrix(0.999999669795309 0 0 0.999999669795309 103.284471764818 102.260568383306)"/><ellipse cx=".721" cy=".721" fill="#000" stroke-width="0" rx=".721" ry=".721" transform="matrix(0.999999635412005 0 0 0.999999635412005 103.985932909679 100.117270111511)"/><ellipse cx=".721" cy=".721" fill="#000" stroke-width="0" rx=".721" ry=".721" transform="matrix(0.99999972490504 0 0 0.99999972490504 108.224864707108 104.498294154711)"/><ellipse cx=".721" cy=".721" fill="#000" stroke-width="0" rx=".721" ry=".721" transform="matrix(0.999999733457765 0 0 0.999999733457765 106.554940508594 115.919815932181)"/><ellipse cx=".721" cy=".721" fill="#000" stroke-width="0" rx=".721" ry=".721" transform="matrix(0.999999711466055 0 0 0.999999711466055 107.95612723313 106.652320597139)"/><ellipse cx=".721" cy=".721" fill="#000" stroke-width="0" rx=".721" ry=".721" transform="matrix(0.999999733457765 0 0 0.999999733457765 107.469048204316 109.284531090354)"/><ellipse cx=".721" cy=".721" fill="#000" stroke-width="0" rx=".721" ry=".721" transform="matrix(0.999999594091706 0 0 0.999999594091706 106.951516889066 112.463698948972)"/><ellipse cx=".721" cy=".721" fill="#000" stroke-width="0" rx=".721" ry=".721" transform="matrix(0.999999670748506 0 0 0.999999670748506 108.80588989107 101.464062095174)"/><ellipse cx=".721" cy=".721" fill="#000" stroke-width="0" rx=".721" ry=".721" transform="matrix(0.999999673817736 0 0 0.999999673817736 109.578813347879 100.056633597014)"/><ellipse cx=".721" cy=".721" fill="#000" stroke-width="0" rx=".721" ry=".721" transform="matrix(0.999999681673876 0 0 0.999999681673876 110.249622353932 100.718451695615)"/><ellipse cx=".721" cy=".721" fill="#000" stroke-width="0" rx=".721" ry=".721" transform="matrix(0.999999661673463 0 0 0.999999661673463 110.162397831558 101.378229273415)"/><ellipse cx=".721" cy=".721" fill="#000" stroke-width="0" rx=".721" ry=".721" transform="matrix(0.99999967494108 0 0 0.99999967494108 108.496190207525 102.730337318805)"/><ellipse cx=".721" cy=".721" fill="#000" stroke-width="0" rx=".721" ry=".721" transform="matrix(0.999999640557776 0 0 0.999999640557776 108.927651355922 100.54203903597)"/><ellipse cx=".721" cy=".721" fill="#000" stroke-width="0" rx=".721" ry=".721" transform="matrix(0.999999723285054 0 0 0.999999723285054 106.03973566588 119.844612111148)"/><ellipse cx=".721" cy=".721" fill="#000" stroke-width="0" rx=".721" ry=".721" transform="matrix(0.999999703769421 0 0 0.999999703769421 113.655049128849 104.825375767339)"/><ellipse cx=".721" cy=".721" fill="#000" stroke-width="0" rx=".721" ry=".721" transform="matrix(0.999999712322146 0 0 0.999999712322146 112.525124967156 116.381897303789)"/><ellipse cx=".721" cy=".721" fill="#000" stroke-width="0" rx=".721" ry=".721" transform="matrix(0.999999690330436 0 0 0.999999690330436 113.416311660637 107.099402164579)"/><ellipse cx=".721" cy=".721" fill="#000" stroke-width="0" rx=".721" ry=".721" transform="matrix(0.999999712322146 0 0 0.999999712322146 113.109232642626 109.761612602246)"/><ellipse cx=".721" cy=".721" fill="#000" stroke-width="0" rx=".721" ry=".721" transform="matrix(0.99999957295609 0 0 0.99999957295609 112.861701339077 112.82078039333)"/><ellipse cx=".721" cy=".721" fill="#000" stroke-width="0" rx=".721" ry=".721" transform="matrix(0.999999649612888 0 0 0.999999649612888 113.876074299513 101.701143771678)"/><ellipse cx=".721" cy=".721" fill="#000" stroke-width="0" rx=".721" ry=".721" transform="matrix(0.999999652682118 0 0 0.999999652682118 114.573997739774 100.293715303265)"/><ellipse cx=".721" cy=".721" fill="#000" stroke-width="0" rx=".721" ry=".721" transform="matrix(0.999999660538258 0 0 0.999999660538258 114.974806730887 101.450533389276)"/><ellipse cx=".721" cy=".721" fill="#000" stroke-width="0" rx=".721" ry=".721" transform="matrix(0.999999640537845 0 0 0.999999640537845 114.78258221006 100.625310948936)"/><ellipse cx=".721" cy=".721" fill="#000" stroke-width="0" rx=".721" ry=".721" transform="matrix(0.999999653805462 0 0 0.999999653805462 113.806374623193 103.027418968715)"/><ellipse cx=".721" cy=".721" fill="#000" stroke-width="0" rx=".721" ry=".721" transform="matrix(0.999999619422159 0 0 0.999999619422159 113.922835761581 100.779120731961)"/><ellipse cx=".721" cy=".721" fill="#000" stroke-width="0" rx=".721" ry=".721" transform="matrix(0.999999702149435 0 0 0.999999702149435 112.159920135754 120.366693399972)"/><ellipse cx=".721" cy=".721" fill="#000" stroke-width="0" rx=".721" ry=".721" transform="matrix(0.999999710060731 0 0 0.999999710060731 119.111728595039 105.060145585677)"/><ellipse cx=".721" cy=".721" fill="#000" stroke-width="0" rx=".721" ry=".721" transform="matrix(0.999999718613456 0 0 0.999999718613456 118.518164790294 116.55817477092)"/><ellipse cx=".721" cy=".721" fill="#000" stroke-width="0" rx=".721" ry=".721" transform="matrix(0.999999696621746 0 0 0.999999696621746 118.894204328152 107.228105983085)"/><ellipse cx=".721" cy=".721" fill="#000" stroke-width="0" rx=".721" ry=".721" transform="matrix(0.999999718613456 0 0 0.999999718613456 118.862272480422 110.027890023607)"/><ellipse cx=".721" cy=".721" fill="#000" stroke-width="0" rx=".721" ry=".721" transform="matrix(0.999999579247399 0 0 0.999999579247399 118.734741169824 113.087057833938)"/><ellipse cx=".721" cy=".721" fill="#000" stroke-width="0" rx=".721" ry=".721" transform="matrix(0.999999655904197 0 0 0.999999655904197 119.26911415861 101.787421150567)"/><ellipse cx=".721" cy=".721" fill="#000" stroke-width="0" rx=".721" ry=".721" transform="matrix(0.999999658973428 0 0 0.999999658973428 119.627626358017 100.35877947047)"/><ellipse cx=".721" cy=".721" fill="#000" stroke-width="0" rx=".721" ry=".721" transform="matrix(0.999999666829567 0 0 0.999999666829567 119.964795743168 101.558023969416)"/><ellipse cx=".721" cy=".721" fill="#000" stroke-width="0" rx=".721" ry=".721" transform="matrix(0.999999646829154 0 0 0.999999646829154 119.814997626787 100.838867538023)"/><ellipse cx=".721" cy=".721" fill="#000" stroke-width="0" rx=".721" ry=".721" transform="matrix(0.999999660096772 0 0 0.999999660096772 119.19941448185 103.113696355948)"/><ellipse cx=".721" cy=".721" fill="#000" stroke-width="0" rx=".721" ry=".721" transform="matrix(0.999999625713468 0 0 0.999999625713468 119.315875620972 100.865398105049)"/><ellipse cx=".721" cy=".721" fill="#000" stroke-width="0" rx=".721" ry=".721" transform="matrix(0.999999708440745 0 0 0.999999708440745 118.362959946984 120.722970883934)"/><ellipse cx=".721" cy=".721" fill="#000" stroke-width="0" rx=".721" ry=".721" transform="matrix(0.999999707063081 0 0 0.999999707063081 124.55157719119 105.131059641812)"/><ellipse cx=".721" cy=".721" fill="#000" stroke-width="0" rx=".721" ry=".721" transform="matrix(0.999999715615806 0 0 0.999999715615806 124.509556671891 116.650301995806)"/><ellipse cx=".721" cy=".721" fill="#000" stroke-width="0" rx=".721" ry=".721" transform="matrix(0.999999693624096 0 0 0.999999693624096 124.546184957135 107.277806829503)"/><ellipse cx=".721" cy=".721" fill="#000" stroke-width="0" rx=".721" ry=".721" transform="matrix(0.999999715615806 0 0 0.999999715615806 124.535466312719 109.971524845542)"/><ellipse cx=".721" cy=".721" fill="#000" stroke-width="0" rx=".721" ry=".721" transform="matrix(0.99999957624975 0 0 0.99999957624975 124.535214221811 113.179185069228)"/><ellipse cx=".721" cy=".721" fill="#000" stroke-width="0" rx=".721" ry=".721" transform="matrix(0.999999652906548 0 0 0.999999652906548 124.475617518891 101.603776777896)"/><ellipse cx=".721" cy=".721" fill="#000" stroke-width="0" rx=".721" ry=".721" transform="matrix(0.999999655975779 0 0 0.999999655975779 124.409865652865 101.235795262979)"/><ellipse cx=".721" cy=".721" fill="#000" stroke-width="0" rx=".721" ry=".721" transform="matrix(0.999999657099123 0 0 0.999999657099123 124.533197061649 103.205823621135)"/><ellipse cx=".721" cy=".721" fill="#000" stroke-width="0" rx=".721" ry=".721" transform="matrix(0.999999622715819 0 0 0.999999622715819 124.522378981113 100.405982093309)"/><ellipse cx=".721" cy=".721" fill="#000" stroke-width="0" rx=".721" ry=".721" transform="matrix(0.999999705443095 0 0 0.999999705443095 124.545270658008 120.687818877027)"/><ellipse cx=".721" cy=".721" fill="#000" stroke-width="0" rx=".721" ry=".721" transform="matrix(-0.99999973836573 0 0 0.99999973836573 246.708364631672 81.7309113168626)"/><ellipse cx=".721" cy=".721" fill="#000" stroke-width="0" rx=".721" ry=".721" transform="matrix(-0.999999760477714 0 0 0.999999760477714 244.208568303115 80.8257100652909)"/><ellipse cx=".721" cy=".721" fill="#000" stroke-width="0" rx=".721" ry=".721" transform="matrix(-0.999999760477714 0 0 0.999999760477714 249.263567231585 83.0607095915285)"/><ellipse cx=".721" cy=".721" fill="#000" stroke-width="0" rx=".721" ry=".721" transform="matrix(-0.999999760477714 0 0 0.999999760477714 242.033568764158 80.1357102115532)"/><ellipse cx=".721" cy=".721" fill="#000" stroke-width="0" rx=".721" ry=".721" transform="matrix(-0.999999760477714 0 0 0.999999760477714 250.913566881829 78.9657104595629)"/><ellipse cx=".721" cy=".721" fill="#000" stroke-width="0" rx=".721" ry=".721" transform="matrix(-0.999999760477714 0 0 0.999999760477714 250.77856671337 89.9607079279499)"/><ellipse cx=".721" cy=".721" fill="#000" stroke-width="0" rx=".721" ry=".721" transform="matrix(-0.999999760477714 0 0 0.999999760477714 247.688567468364 87.8307084483822)"/><ellipse cx=".721" cy=".721" fill="#000" stroke-width="0" rx=".721" ry=".721" transform="matrix(-0.999999760477714 0 0 0.999999760477714 244.808568172047 86.0007088955141)"/><ellipse cx=".721" cy=".721" fill="#000" stroke-width="0" rx=".721" ry=".721" transform="matrix(-0.999999760477714 0 0 0.999999760477714 242.2585687951 84.5007092620157)"/><ellipse cx=".721" cy=".721" fill="#000" stroke-width="0" rx=".721" ry=".721" transform="matrix(-0.999999760477714 0 0 0.999999760477714 239.798569396163 83.3307095478871)"/><ellipse cx=".721" cy=".721" fill="#000" stroke-width="0" rx=".721" ry=".721" transform="matrix(-0.999999760477714 0 0 0.999999760477714 237.518569953245 82.4907097531279)"/><ellipse cx=".721" cy=".721" fill="#000" stroke-width="0" rx=".721" ry=".721" transform="matrix(-0.999999760477714 0 0 0.999999760477714 235.538570437027 81.8907098997285)"/><ellipse cx=".721" cy=".721" fill="#000" stroke-width="0" rx=".721" ry=".721" transform="matrix(-0.999999760372854 0 0 0.999999760372854 249.538770300274 95.9405042873151)"/><ellipse cx=".721" cy=".721" fill="#000" stroke-width="0" rx=".721" ry=".721" transform="matrix(-0.999999760372854 0 0 0.999999760372854 246.32877100661 93.3305048616262)"/><ellipse cx=".721" cy=".721" fill="#000" stroke-width="0" rx=".721" ry=".721" transform="matrix(-0.999999761401243 0 0 0.999999761401243 243.318974827673 91.0603021877926)"/><ellipse cx=".721" cy=".721" fill="#000" stroke-width="0" rx=".721" ry=".721" transform="matrix(-0.999999782048797 0 0 0.999999782048797 240.399178507626 89.0001017091982)"/><ellipse cx=".721" cy=".721" fill="#000" stroke-width="0" rx=".721" ry=".721" transform="matrix(-0.999999767232732 0 0 0.999999767232732 237.659382193397 87.2098975276337)"/><ellipse cx=".721" cy=".721" fill="#000" stroke-width="0" rx=".721" ry=".721" transform="matrix(-0.999999744011169 0 0 0.999999744011169 235.39958611939 85.8696924955104)"/><ellipse cx=".721" cy=".721" fill="#000" stroke-width="0" rx=".721" ry=".721" transform="matrix(-0.999999747080397 0 0 0.999999747080397 233.019789411708 84.6794897313416)"/><ellipse cx=".721" cy=".721" fill="#000" stroke-width="0" rx=".721" ry=".721" transform="matrix(-0.999999754936535 0 0 0.999999754936535 231.149992935798 83.9092874945194)"/><ellipse cx=".721" cy=".721" fill="#000" stroke-width="0" rx=".721" ry=".721" transform="matrix(-0.999999734936118 0 0 0.999999734936118 229.190197046835 83.5890852858492)"/><ellipse cx=".721" cy=".721" fill="#000" stroke-width="0" rx=".721" ry=".721" transform="matrix(-0.999999733111085 0 0 0.999999733111085 226.561359269305 86.0211175011338)"/><ellipse cx=".721" cy=".721" fill="#000" stroke-width="0" rx=".721" ry=".721" transform="matrix(-0.999999755223066 0 0 0.999999755223066 224.804024868469 85.3916878225931)"/><ellipse cx=".721" cy=".721" fill="#000" stroke-width="0" rx=".721" ry=".721" transform="matrix(-0.999999755223066 0 0 0.999999755223066 228.480165929004 87.0327178054187)"/><ellipse cx=".721" cy=".721" fill="#000" stroke-width="0" rx=".721" ry=".721" transform="matrix(-0.999999755223066 0 0 0.999999755223066 223.138142082371 85.1895915163514)"/><ellipse cx=".721" cy=".721" fill="#000" stroke-width="0" rx=".721" ry=".721" transform="matrix(-0.999999755223066 0 0 0.999999755223066 228.42538878342 92.55385826421)"/><ellipse cx=".721" cy=".721" fill="#000" stroke-width="0" rx=".721" ry=".721" transform="matrix(-0.999999755223066 0 0 0.999999755223066 225.992998678997 90.7632699567881)"/><ellipse cx=".721" cy=".721" fill="#000" stroke-width="0" rx=".721" ry=".721" transform="matrix(-0.999999755223066 0 0 0.999999755223066 223.855461312399 89.2514683769295)"/><ellipse cx=".721" cy=".721" fill="#000" stroke-width="0" rx=".721" ry=".721" transform="matrix(-0.999999755223066 0 0 0.999999755223066 221.878218282959 87.9848139244688)"/><ellipse cx=".721" cy=".721" fill="#000" stroke-width="0" rx=".721" ry=".721" transform="matrix(-0.999999755223066 0 0 0.999999755223066 220.160680811534 87.3027177603581)"/><ellipse cx=".721" cy=".721" fill="#000" stroke-width="0" rx=".721" ry=".721" transform="matrix(-0.999999755223066 0 0 0.999999755223066 218.411011319586 86.8445555260854)"/><ellipse cx=".721" cy=".721" fill="#000" stroke-width="0" rx=".721" ry=".721" transform="matrix(-0.999999755223066 0 0 0.999999755223066 217.131047333239 86.8809516026261)"/><ellipse cx=".721" cy=".721" fill="#000" stroke-width="0" rx=".721" ry=".721" transform="matrix(-0.999999755118205 0 0 0.999999755118205 225.955226918381 97.5578475044127)"/><ellipse cx=".721" cy=".721" fill="#000" stroke-width="0" rx=".721" ry=".721" transform="matrix(-0.999999755118205 0 0 0.999999755118205 223.466476358611 95.1599800680345)"/><ellipse cx=".721" cy=".721" fill="#000" stroke-width="0" rx=".721" ry=".721" transform="matrix(-0.999999756146594 0 0 0.999999756146594 221.220355307635 93.1867621719641)"/><ellipse cx=".721" cy=".721" fill="#000" stroke-width="0" rx=".721" ry=".721" transform="matrix(-0.99999977679415 0 0 0.99999977679415 219.191513300433 91.5083992602676)"/><ellipse cx=".721" cy=".721" fill="#000" stroke-width="0" rx=".721" ry=".721" transform="matrix(-0.999999761978083 0 0 0.999999761978083 217.088112927387 90.057606249063)"/><ellipse cx=".721" cy=".721" fill="#000" stroke-width="0" rx=".721" ry=".721" transform="matrix(-0.99999973875652 0 0 0.99999973875652 215.443499594483 89.0780255824951)"/><ellipse cx=".721" cy=".721" fill="#000" stroke-width="0" rx=".721" ry=".721" transform="matrix(-0.999999741825749 0 0 0.999999741825749 213.89101760413 88.4817923562488)"/><ellipse cx=".721" cy=".721" fill="#000" stroke-width="0" rx=".721" ry=".721" transform="matrix(-0.999999749681887 0 0 0.999999749681887 212.360632298997 88.2419200624631)"/><ellipse cx=".721" cy=".721" fill="#000" stroke-width="0" rx=".721" ry=".721" transform="matrix(-0.999999729681474 0 0 0.999999729681474 210.973592754443 88.4308345969053)"/><ellipse cx=".721" cy=".721" fill="#000" stroke-width="0" rx=".721" ry=".721" transform="matrix(-0.999999755223066 0 0 0.999999755223066 244.707498426085 99.699710751824)"/><ellipse cx=".721" cy=".721" fill="#000" stroke-width="0" rx=".721" ry=".721" transform="matrix(-0.999999755223066 0 0 0.999999755223066 241.426580471188 96.8060361320719)"/><ellipse cx=".721" cy=".721" fill="#000" stroke-width="0" rx=".721" ry=".721" transform="matrix(-0.999999755223066 0 0 0.999999755223066 238.482941588006 94.148721857227)"/><ellipse cx=".721" cy=".721" fill="#000" stroke-width="0" rx=".721" ry=".721" transform="matrix(-0.999999755118205 0 0 0.999999755118205 248.155818925322 102.943004452087)"/><ellipse cx=".721" cy=".721" fill="#000" stroke-width="0" rx=".721" ry=".721" transform="matrix(-0.999999755118205 0 0 0.999999755118205 239.748585982045 103.260426452253)"/><ellipse cx=".721" cy=".721" fill="#000" stroke-width="0" rx=".721" ry=".721" transform="matrix(-0.999999756146594 0 0 0.999999756146594 236.547871031175 100.16290904344)"/><ellipse cx=".721" cy=".721" fill="#000" stroke-width="0" rx=".721" ry=".721" transform="matrix(-0.99999977679415 0 0 0.99999977679415 228.642973046378 100.414947227289)"/><ellipse cx=".721" cy=".721" fill="#000" stroke-width="0" rx=".721" ry=".721" transform="matrix(-0.999999761978083 0 0 0.999999761978083 233.645994249668 97.224671944977)"/><ellipse cx=".721" cy=".721" fill="#000" stroke-width="0" rx=".721" ry=".721" transform="matrix(-0.99999973875652 0 0 0.99999973875652 230.877081420207 94.8450201866001)"/><ellipse cx=".721" cy=".721" fill="#000" stroke-width="0" rx=".721" ry=".721" transform="matrix(-0.99999972790135 0 0 0.99999972790135 235.626960268263 91.913535014109)"/><ellipse cx=".721" cy=".721" fill="#000" stroke-width="0" rx=".721" ry=".721" transform="matrix(-0.999999726987874 0 0 0.999999726987874 233.013194074558 89.9028234206724)"/><ellipse cx=".721" cy=".721" fill="#000" stroke-width="0" rx=".721" ry=".721" transform="matrix(-0.999999726987874 0 0 0.999999726987874 230.722168611714 88.2057675222697)"/><ellipse cx=".721" cy=".721" fill="#000" stroke-width="0" rx=".721" ry=".721" transform="matrix(-0.999999748155303 0 0 0.999999748155303 250.382619927063 114.32865693392)"/><ellipse cx=".721" cy=".721" fill="#000" stroke-width="0" rx=".721" ry=".721" transform="matrix(-0.999999749183693 0 0 0.999999749183693 246.842493817677 110.509890787469)"/><ellipse cx=".721" cy=".721" fill="#000" stroke-width="0" rx=".721" ry=".721" transform="matrix(-0.999999755015181 0 0 0.999999755015181 243.244221104456 106.747978564744)"/><ellipse cx=".721" cy=".721" fill="#000" stroke-width="0" rx=".721" ry=".721" transform="matrix(-0.999999758793787 0 0 0.999999758793787 231.63553473461 103.509763085015)"/><ellipse cx=".721" cy=".721" fill="#000" stroke-width="0" rx=".721" ry=".721" transform="matrix(-0.999999753643999 0 0 0.999999753643999 226.294262940772 106.608969651255)"/><ellipse cx=".721" cy=".721" fill="#000" stroke-width="0" rx=".721" ry=".721" transform="matrix(-0.999999753643999 0 0 0.999999753643999 223.553344910715 103.445295076243)"/><ellipse cx=".721" cy=".721" fill="#000" stroke-width="0" rx=".721" ry=".721" transform="matrix(-0.999999753539139 0 0 0.999999753539139 229.322583497053 110.242263288372)"/><ellipse cx=".721" cy=".721" fill="#000" stroke-width="0" rx=".721" ry=".721" transform="matrix(-0.999999753539139 0 0 0.999999753539139 221.005350542082 109.779685392893)"/><ellipse cx=".721" cy=".721" fill="#000" stroke-width="0" rx=".721" ry=".721" transform="matrix(-0.999999754567528 0 0 0.999999754567528 218.254635535104 106.262168046055)"/><ellipse cx=".721" cy=".721" fill="#000" stroke-width="0" rx=".721" ry=".721" transform="matrix(-0.999999746576236 0 0 0.999999746576236 232.539384347983 114.217916501491)"/><ellipse cx=".721" cy=".721" fill="#000" stroke-width="0" rx=".721" ry=".721" transform="matrix(-0.999999747604626 0 0 0.999999747604626 227.004258443529 117.734149615195)"/><ellipse cx=".721" cy=".721" fill="#000" stroke-width="0" rx=".721" ry=".721" transform="matrix(-0.999999753436114 0 0 0.999999753436114 223.900985739051 113.687237442793)"/><ellipse cx=".721" cy=".721" fill="#000" stroke-width="0" rx=".721" ry=".721" transform="matrix(-0.999999755302575 0 0 0.999999755302575 234.621900577371 106.898802398049)"/><ellipse cx=".721" cy=".721" fill="#000" stroke-width="0" rx=".721" ry=".721" transform="matrix(-0.999999755197715 0 0 0.999999755197715 237.950221088398 110.487096048735)"/><ellipse cx=".721" cy=".721" fill="#000" stroke-width="0" rx=".721" ry=".721" transform="matrix(-0.999999748234813 0 0 0.999999748234813 241.4520218969 114.507749260905)"/><ellipse cx=".721" cy=".721" fill="#000" stroke-width="0" rx=".721" ry=".721" transform="matrix(-0.999999749263203 0 0 0.999999749263203 235.991895970168 118.353982325137)"/><ellipse cx=".721" cy=".721" fill="#000" stroke-width="0" rx=".721" ry=".721" transform="matrix(-0.999999713117776 0 0 0.999999713117776 245.267225019282 118.612542625536)"/><ellipse cx=".721" cy=".721" fill="#000" stroke-width="0" rx=".721" ry=".721" transform="matrix(-0.999999695224594 0 0 0.999999695224594 209.127347737917 90.1431918141839)"/><ellipse cx=".721" cy=".721" fill="#000" stroke-width="0" rx=".721" ry=".721" transform="matrix(-0.999999717336573 0 0 0.999999717336573 207.815490611051 89.6940743624815)"/><ellipse cx=".721" cy=".721" fill="#000" stroke-width="0" rx=".721" ry=".721" transform="matrix(-0.999999717336573 0 0 0.999999717336573 206.552658694756 89.6616836667123)"/><ellipse cx=".721" cy=".721" fill="#000" stroke-width="0" rx=".721" ry=".721" transform="matrix(-0.999999717336573 0 0 0.999999717336573 209.375695396521 95.7126588829208)"/><ellipse cx=".721" cy=".721" fill="#000" stroke-width="0" rx=".721" ry=".721" transform="matrix(-0.999999717336573 0 0 0.999999717336573 207.524536302783 93.9675121669577)"/><ellipse cx=".721" cy=".721" fill="#000" stroke-width="0" rx=".721" ry=".721" transform="matrix(-0.999999717336573 0 0 0.999999717336573 204.306321103498 91.7462637438727)"/><ellipse cx=".721" cy=".721" fill="#000" stroke-width="0" rx=".721" ry=".721" transform="matrix(-0.999999717336573 0 0 0.999999717336573 202.981227910872 91.0747742059752)"/><ellipse cx=".721" cy=".721" fill="#000" stroke-width="0" rx=".721" ry=".721" transform="matrix(-0.999999717336573 0 0 0.999999717336573 201.69824890154 90.9878430020476)"/><ellipse cx=".721" cy=".721" fill="#000" stroke-width="0" rx=".721" ry=".721" transform="matrix(-0.999999717336573 0 0 0.999999717336573 200.747089575189 91.2257644842595)"/><ellipse cx=".721" cy=".721" fill="#000" stroke-width="0" rx=".721" ry=".721" transform="matrix(-0.999999717231713 0 0 0.999999717231713 208.280515261547 102.64054568397)"/><ellipse cx=".721" cy=".721" fill="#000" stroke-width="0" rx=".721" ry=".721" transform="matrix(-0.999999717231713 0 0 0.999999717231713 206.151764734634 100.002678379395)"/><ellipse cx=".721" cy=".721" fill="#000" stroke-width="0" rx=".721" ry=".721" transform="matrix(-0.999999718260101 0 0 0.999999718260101 204.253034415905 97.6906738189146)"/><ellipse cx=".721" cy=".721" fill="#000" stroke-width="0" rx=".721" ry=".721" transform="matrix(-0.999999738907658 0 0 0.999999738907658 202.542390476543 95.863818575017)"/><ellipse cx=".721" cy=".721" fill="#000" stroke-width="0" rx=".721" ry=".721" transform="matrix(-0.99999972409159 0 0 0.99999972409159 200.926893769349 94.3812058196806)"/><ellipse cx=".721" cy=".721" fill="#000" stroke-width="0" rx=".721" ry=".721" transform="matrix(-0.999999700870028 0 0 0.999999700870028 198.189800669942 92.4258179460098)"/><ellipse cx=".721" cy=".721" fill="#000" stroke-width="0" rx=".721" ry=".721" transform="matrix(-0.999999703939257 0 0 0.999999703939257 196.838844145456 92.1902091549687)"/><ellipse cx=".721" cy=".721" fill="#000" stroke-width="0" rx=".721" ry=".721" transform="matrix(-0.999999711795395 0 0 0.999999711795395 195.806969115745 92.4170272865973)"/><ellipse cx=".721" cy=".721" fill="#000" stroke-width="0" rx=".721" ry=".721" transform="matrix(-0.999999691794982 0 0 0.999999691794982 194.663881432274 92.9135332246428)"/><ellipse cx=".721" cy=".721" fill="#000" stroke-width="0" rx=".721" ry=".721" transform="matrix(-0.9999997050626 0 0 0.9999997050626 199.432919202968 93.2451998282913)"/><ellipse cx=".721" cy=".721" fill="#000" stroke-width="0" rx=".721" ry=".721" transform="matrix(-0.9999997050626 0 0 0.9999997050626 205.852917864152 92.7727000215213)"/><ellipse cx=".721" cy=".721" fill="#000" stroke-width="0" rx=".721" ry=".721" transform="matrix(-0.999999681990478 0 0 0.999999681990478 215.738674001761 103.091700489426)"/><ellipse cx=".721" cy=".721" fill="#000" stroke-width="0" rx=".721" ry=".721" transform="matrix(-0.999999681990478 0 0 0.999999681990478 213.384923578837 100.273833300989)"/><ellipse cx=".721" cy=".721" fill="#000" stroke-width="0" rx=".721" ry=".721" transform="matrix(-0.999999683018866 0 0 0.999999683018866 211.306193350198 97.8118288412998)"/><ellipse cx=".721" cy=".721" fill="#000" stroke-width="0" rx=".721" ry=".721" transform="matrix(-0.999999681990478 0 0 0.999999681990478 214.30194807746 93.5939587767916)"/><ellipse cx=".721" cy=".721" fill="#000" stroke-width="0" rx=".721" ry=".721" transform="matrix(-0.999999681990478 0 0 0.999999681990478 212.38764452416 92.1023737448658)"/><ellipse cx=".721" cy=".721" fill="#000" stroke-width="0" rx=".721" ry=".721" transform="matrix(-0.999999683018866 0 0 0.999999683018866 210.653914234578 90.9078690713724)"/><ellipse cx=".721" cy=".721" fill="#000" stroke-width="0" rx=".721" ry=".721" transform="matrix(-0.999999681990478 0 0 0.999999681990478 220.957121075454 100.389051471376)"/><ellipse cx=".721" cy=".721" fill="#000" stroke-width="0" rx=".721" ry=".721" transform="matrix(-0.999999681990478 0 0 0.999999681990478 218.537157464065 97.8079550196614)"/><ellipse cx=".721" cy=".721" fill="#000" stroke-width="0" rx=".721" ry=".721" transform="matrix(-0.999999683018866 0 0 0.999999683018866 216.320229223875 95.5383769391091)"/><ellipse cx=".721" cy=".721" fill="#000" stroke-width="0" rx=".721" ry=".721" transform="matrix(-0.999999766833881 0 0 0.999999766833881 215.466706386822 112.757343535007)"/><ellipse cx=".721" cy=".721" fill="#000" stroke-width="0" rx=".721" ry=".721" transform="matrix(-0.999999767862271 0 0 0.999999767862271 212.822057339942 108.985267749404)"/><ellipse cx=".721" cy=".721" fill="#000" stroke-width="0" rx=".721" ry=".721" transform="matrix(-0.999999760899369 0 0 0.999999760899369 221.22259921577 120.861183419412)"/><ellipse cx=".721" cy=".721" fill="#000" stroke-width="0" rx=".721" ry=".721" transform="matrix(-0.999999766730857 0 0 0.999999766730857 218.19627563095 116.728535234857)"/><ellipse cx=".721" cy=".721" fill="#000" stroke-width="0" rx=".721" ry=".721" transform="matrix(-0.999999695285221 0 0 0.999999695285221 210.475801367818 105.623881356624)"/><ellipse cx=".721" cy=".721" fill="#000" stroke-width="0" rx=".721" ry=".721" transform="matrix(-0.999999723765244 0 0 0.999999723765244 202.893223232673 104.939554989451)"/><ellipse cx=".721" cy=".721" fill="#000" stroke-width="0" rx=".721" ry=".721" transform="matrix(-0.999999723765244 0 0 0.999999723765244 201.019472665163 102.166687681771)"/><ellipse cx=".721" cy=".721" fill="#000" stroke-width="0" rx=".721" ry=".721" transform="matrix(-0.999999724793632 0 0 0.999999724793632 199.135742350483 99.6596831280943)"/><ellipse cx=".721" cy=".721" fill="#000" stroke-width="0" rx=".721" ry=".721" transform="matrix(-0.999999745441189 0 0 0.999999745441189 197.500098396601 97.6378278911673)"/><ellipse cx=".721" cy=".721" fill="#000" stroke-width="0" rx=".721" ry=".721" transform="matrix(-0.999999773367413 0 0 0.999999773367413 209.824414431587 115.551352854782)"/><ellipse cx=".721" cy=".721" fill="#000" stroke-width="0" rx=".721" ry=".721" transform="matrix(-0.999999774395803 0 0 0.999999774395803 207.344765350159 111.629277060231)"/><ellipse cx=".721" cy=".721" fill="#000" stroke-width="0" rx=".721" ry=".721" transform="matrix(-0.9999997674329 0 0 0.9999997674329 188.050719708279 114.791455750382)"/><ellipse cx=".721" cy=".721" fill="#000" stroke-width="0" rx=".721" ry=".721" transform="matrix(-0.999999773264389 0 0 0.999999773264389 212.478983701398 119.85254454604)"/><ellipse cx=".721" cy=".721" fill="#000" stroke-width="0" rx=".721" ry=".721" transform="matrix(-0.999999701818752 0 0 0.999999701818752 205.088509353287 108.08789066433)"/><ellipse cx=".721" cy=".721" fill="#000" stroke-width="0" rx=".721" ry=".721" transform="matrix(-0.999999723765244 0 0 0.999999723765244 197.523223712138 107.0695548111)"/><ellipse cx=".721" cy=".721" fill="#000" stroke-width="0" rx=".721" ry=".721" transform="matrix(-0.999999723765244 0 0 0.999999723765244 195.619473151907 104.05668752164)"/><ellipse cx=".721" cy=".721" fill="#000" stroke-width="0" rx=".721" ry=".721" transform="matrix(-0.999999724793632 0 0 0.999999724793632 193.900742805245 101.489682968051)"/><ellipse cx=".721" cy=".721" fill="#000" stroke-width="0" rx=".721" ry=".721" transform="matrix(-0.999999745441189 0 0 0.999999745441189 192.32509884306 99.3028277432736)"/><ellipse cx=".721" cy=".721" fill="#000" stroke-width="0" rx=".721" ry=".721" transform="matrix(-0.999999773367413 0 0 0.999999773367413 204.034414942595 118.296352632481)"/><ellipse cx=".721" cy=".721" fill="#000" stroke-width="0" rx=".721" ry=".721" transform="matrix(-0.999999774395803 0 0 0.999999774395803 201.644765856437 114.179276851993)"/><ellipse cx=".721" cy=".721" fill="#000" stroke-width="0" rx=".721" ry=".721" transform="matrix(-0.9999997674329 0 0 0.9999997674329 186.26255309909 111.027125063602)"/><ellipse cx=".721" cy=".721" fill="#000" stroke-width="0" rx=".721" ry=".721" transform="matrix(-0.999999773264389 0 0 0.999999773264389 189.948985655109 118.742544662363)"/><ellipse cx=".721" cy=".721" fill="#000" stroke-width="0" rx=".721" ry=".721" transform="matrix(-0.999999701818752 0 0 0.999999701818752 199.523509849574 110.457890468309)"/><ellipse cx=".721" cy=".721" fill="#000" stroke-width="0" rx=".721" ry=".721" transform="matrix(-0.999999723765244 0 0 0.999999723765244 190.18822438996 106.004554938434)"/><ellipse cx=".721" cy=".721" fill="#000" stroke-width="0" rx=".721" ry=".721" transform="matrix(-0.999999723765244 0 0 0.999999723765244 188.509473796066 103.306687623701)"/><ellipse cx=".721" cy=".721" fill="#000" stroke-width="0" rx=".721" ry=".721" transform="matrix(-0.999999724793632 0 0 0.999999724793632 187.165743403069 100.889683011723)"/><ellipse cx=".721" cy=".721" fill="#000" stroke-width="0" rx=".721" ry=".721" transform="matrix(-0.999999745441189 0 0 0.999999745441189 183.265099635856 104.807827274975)"/><ellipse cx=".721" cy=".721" fill="#000" stroke-width="0" rx=".721" ry=".721" transform="matrix(-0.999999773367413 0 0 0.999999773367413 195.904415735556 116.631352795421)"/><ellipse cx=".721" cy=".721" fill="#000" stroke-width="0" rx=".721" ry=".721" transform="matrix(-0.999999774395803 0 0 0.999999774395803 193.799766607711 112.739276999325)"/><ellipse cx=".721" cy=".721" fill="#000" stroke-width="0" rx=".721" ry=".721" transform="matrix(-0.9999997674329 0 0 0.9999997674329 184.71901628397 107.675956691462)"/><ellipse cx=".721" cy=".721" fill="#000" stroke-width="0" rx=".721" ry=".721" transform="matrix(-0.999999773264389 0 0 0.999999773264389 198.063985064743 120.722544507064)"/><ellipse cx=".721" cy=".721" fill="#000" stroke-width="0" rx=".721" ry=".721" transform="matrix(-0.999999701818752 0 0 0.999999701818752 191.843510574261 109.047890623505)"/><ellipse cx=".721" cy=".721" fill="#000" stroke-width="0" rx=".721" ry=".721" transform="matrix(-0.999999666387845 0 0 0.999999666387845 194.639227900419 94.7787466897915)"/><ellipse cx=".721" cy=".721" fill="#000" stroke-width="0" rx=".721" ry=".721" transform="matrix(-0.999999669457073 0 0 0.999999669457073 192.253271509158 93.3281380085824)"/><ellipse cx=".721" cy=".721" fill="#000" stroke-width="0" rx=".721" ry=".721" transform="matrix(-0.999999677313213 0 0 0.999999677313213 191.326396506238 93.3449561499691)"/><ellipse cx=".721" cy=".721" fill="#000" stroke-width="0" rx=".721" ry=".721" transform="matrix(-0.9999996573128 0 0 0.9999996573128 190.183308862184 93.8414620708938)"/><ellipse cx=".721" cy=".721" fill="#000" stroke-width="0" rx=".721" ry=".721" transform="matrix(-0.999999670580417 0 0 0.999999670580417 195.912346388069 95.9431285149389)"/><ellipse cx=".721" cy=".721" fill="#000" stroke-width="0" rx=".721" ry=".721" transform="matrix(-0.999999636197113 0 0 0.999999636197113 193.324433465222 93.918543428401)"/><ellipse cx=".721" cy=".721" fill="#000" stroke-width="0" rx=".721" ry=".721" transform="matrix(-0.999999682045487 0 0 0.999999682045487 190.861415741966 97.5623223990934)"/><ellipse cx=".721" cy=".721" fill="#000" stroke-width="0" rx=".721" ry=".721" transform="matrix(-0.999999644494076 0 0 0.999999644494076 188.310630645399 95.1252492541972)"/><ellipse cx=".721" cy=".721" fill="#000" stroke-width="0" rx=".721" ry=".721" transform="matrix(-0.999999647563305 0 0 0.999999647563305 186.419674257099 94.3796405345672)"/><ellipse cx=".721" cy=".721" fill="#000" stroke-width="0" rx=".721" ry=".721" transform="matrix(-0.999999655419445 0 0 0.999999655419445 185.657799258047 94.5614586591603)"/><ellipse cx=".721" cy=".721" fill="#000" stroke-width="0" rx=".721" ry=".721" transform="matrix(-0.999999635419031 0 0 0.999999635419031 184.6947116211 95.1179645632419)"/><ellipse cx=".721" cy=".721" fill="#000" stroke-width="0" rx=".721" ry=".721" transform="matrix(-0.999999648686649 0 0 0.999999648686649 189.553749108162 96.0046310822228)"/><ellipse cx=".721" cy=".721" fill="#000" stroke-width="0" rx=".721" ry=".721" transform="matrix(-0.999999614303346 0 0 0.999999614303346 187.205836218083 94.5050459877486)"/><ellipse cx=".721" cy=".721" fill="#000" stroke-width="0" rx=".721" ry=".721" transform="matrix(-0.999999616987819 0 0 0.999999616987819 183.443322415866 96.3074373985464)"/><ellipse cx=".721" cy=".721" fill="#000" stroke-width="0" rx=".721" ry=".721" transform="matrix(-0.999999620057049 0 0 0.999999620057049 181.584185881768 95.3390900841016)"/><ellipse cx=".721" cy=".721" fill="#000" stroke-width="0" rx=".721" ry=".721" transform="matrix(-0.999999627913188 0 0 0.999999627913188 180.822310903672 95.5209082036936)"/><ellipse cx=".721" cy=".721" fill="#000" stroke-width="0" rx=".721" ry=".721" transform="matrix(-0.999999607912774 0 0 0.999999607912774 179.859223293217 96.0774140924678)"/><ellipse cx=".721" cy=".721" fill="#000" stroke-width="0" rx=".721" ry=".721" transform="matrix(-0.999999621180393 0 0 0.999999621180393 185.831953723243 98.9156951213255)"/><ellipse cx=".721" cy=".721" fill="#000" stroke-width="0" rx=".721" ry=".721" transform="matrix(-0.99999958679709 0 0 0.99999958679709 182.327921418208 95.5811681418603)"/><ellipse cx=".721" cy=".721" fill="#000" stroke-width="0" rx=".721" ry=".721" transform="matrix(-0.999999616987819 0 0 0.999999616987819 178.478703534553 97.4762225293268)"/><ellipse cx=".721" cy=".721" fill="#000" stroke-width="0" rx=".721" ry=".721" transform="matrix(-0.999999620057049 0 0 0.999999620057049 176.61774719551 96.2806138715519)"/><ellipse cx=".721" cy=".721" fill="#000" stroke-width="0" rx=".721" ry=".721" transform="matrix(-0.999999627913188 0 0 0.999999627913188 175.795872222927 96.3574320007914)"/><ellipse cx=".721" cy=".721" fill="#000" stroke-width="0" rx=".721" ry=".721" transform="matrix(-0.999999607912774 0 0 0.999999607912774 174.952784601446 96.6739379116169)"/><ellipse cx=".721" cy=".721" fill="#000" stroke-width="0" rx=".721" ry=".721" transform="matrix(-0.999999621180393 0 0 0.999999621180393 179.376821994822 98.6106043097342)"/><ellipse cx=".721" cy=".721" fill="#000" stroke-width="0" rx=".721" ry=".721" transform="matrix(-0.99999958679709 0 0 0.99999958679709 177.418909133491 96.5410193088801)"/><ellipse cx=".721" cy=".721" fill="#000" stroke-width="0" rx=".721" ry=".721" transform="matrix(-0.999999616987819 0 0 0.999999616987819 172.589779054223 97.5582430124216)"/><ellipse cx=".721" cy=".721" fill="#000" stroke-width="0" rx=".721" ry=".721" transform="matrix(-0.999999620057049 0 0 0.999999620057049 171.163822692316 97.0376343009037)"/><ellipse cx=".721" cy=".721" fill="#000" stroke-width="0" rx=".721" ry=".721" transform="matrix(-0.999999627913188 0 0 0.999999627913188 170.401947714221 97.2194524204958)"/><ellipse cx=".721" cy=".721" fill="#000" stroke-width="0" rx=".721" ry=".721" transform="matrix(-0.999999607912774 0 0 0.999999607912774 169.723860088062 97.9259583010053)"/><ellipse cx=".721" cy=".721" fill="#000" stroke-width="0" rx=".721" ry=".721" transform="matrix(-0.999999621180393 0 0 0.999999621180393 173.352897509238 98.4376248162587)"/><ellipse cx=".721" cy=".721" fill="#000" stroke-width="0" rx=".721" ry=".721" transform="matrix(-0.99999958679709 0 0 0.99999958679709 171.949984631676 97.1630397506357)"/><ellipse cx=".721" cy=".721" fill="#000" stroke-width="0" rx=".721" ry=".721" transform="matrix(-0.999999592257359 0 0 0.999999592257359 184.531545114739 97.4092159363685)"/><ellipse cx=".721" cy=".721" fill="#000" stroke-width="0" rx=".721" ry=".721" transform="matrix(-0.999999628066836 0 0 0.999999628066836 180.552025161108 100.330401790228)"/><ellipse cx=".721" cy=".721" fill="#000" stroke-width="0" rx=".721" ry=".721" transform="matrix(-0.999999628066836 0 0 0.999999628066836 181.782025048095 102.385401601413)"/><ellipse cx=".721" cy=".721" fill="#000" stroke-width="0" rx=".721" ry=".721" transform="matrix(-0.999999690239046 0 0 0.999999690239046 176.497211709574 103.711147127145)"/><ellipse cx=".721" cy=".721" fill="#000" stroke-width="0" rx=".721" ry=".721" transform="matrix(-0.999999690239046 0 0 0.999999690239046 175.281070443073 101.447396741994)"/><ellipse cx=".721" cy=".721" fill="#000" stroke-width="0" rx=".721" ry=".721" transform="matrix(-0.999999691267434 0 0 0.999999691267434 174.436787051908 99.8313467241071)"/><ellipse cx=".721" cy=".721" fill="#000" stroke-width="0" rx=".721" ry=".721" transform="matrix(-0.999999733906701 0 0 0.999999733906701 162.856764821765 117.048118668824)"/><ellipse cx=".721" cy=".721" fill="#000" stroke-width="0" rx=".721" ry=".721" transform="matrix(-0.999999690239046 0 0 0.999999690239046 172.194268519071 107.69121812194)"/><ellipse cx=".721" cy=".721" fill="#000" stroke-width="0" rx=".721" ry=".721" transform="matrix(-0.999999690239046 0 0 0.999999690239046 171.025517962645 104.978350908993)"/><ellipse cx=".721" cy=".721" fill="#000" stroke-width="0" rx=".721" ry=".721" transform="matrix(-0.999999691267434 0 0 0.999999691267434 169.951787620935 102.696346418193)"/><ellipse cx=".721" cy=".721" fill="#000" stroke-width="0" rx=".721" ry=".721" transform="matrix(-0.999999740869604 0 0 0.999999740869604 174.740810653804 114.395939957544)"/><ellipse cx=".721" cy=".721" fill="#000" stroke-width="0" rx=".721" ry=".721" transform="matrix(-0.999999733906701 0 0 0.999999733906701 161.833598210056 113.268788109472)"/><ellipse cx=".721" cy=".721" fill="#000" stroke-width="0" rx=".721" ry=".721" transform="matrix(-0.99999973973819 0 0 0.99999973973819 164.050030772698 120.789207465488)"/><ellipse cx=".721" cy=".721" fill="#000" stroke-width="0" rx=".721" ry=".721" transform="matrix(-0.999999668292555 0 0 0.999999668292555 173.444554650689 110.884553681474)"/><ellipse cx=".721" cy=".721" fill="#000" stroke-width="0" rx=".721" ry=".721" transform="matrix(-0.999999690239046 0 0 0.999999690239046 165.489269391361 106.026218333975)"/><ellipse cx=".721" cy=".721" fill="#000" stroke-width="0" rx=".721" ry=".721" transform="matrix(-0.999999690239046 0 0 0.999999690239046 164.620518787605 103.70335107907)"/><ellipse cx=".721" cy=".721" fill="#000" stroke-width="0" rx=".721" ry=".721" transform="matrix(-0.999999691267434 0 0 0.999999691267434 163.771788399238 101.841346502803)"/><ellipse cx=".721" cy=".721" fill="#000" stroke-width="0" rx=".721" ry=".721" transform="matrix(-0.99999971191499 0 0 0.99999971191499 159.181144819144 104.649490725337)"/><ellipse cx=".721" cy=".721" fill="#000" stroke-width="0" rx=".721" ry=".721" transform="matrix(-0.999999739841213 0 0 0.999999739841213 168.865460736398 115.843015900831)"/><ellipse cx=".721" cy=".721" fill="#000" stroke-width="0" rx=".721" ry=".721" transform="matrix(-0.999999740869604 0 0 0.999999740869604 167.735811599495 112.145940219299)"/><ellipse cx=".721" cy=".721" fill="#000" stroke-width="0" rx=".721" ry=".721" transform="matrix(-0.999999733906701 0 0 0.999999733906701 159.975061472408 107.112620078737)"/><ellipse cx=".721" cy=".721" fill="#000" stroke-width="0" rx=".721" ry=".721" transform="matrix(-0.99999973973819 0 0 0.99999973973819 170.080030070351 119.874207480212)"/><ellipse cx=".721" cy=".721" fill="#000" stroke-width="0" rx=".721" ry=".721" transform="matrix(-0.999999668292555 0 0 0.999999668292555 166.559555567937 108.919553929264)"/><ellipse cx=".721" cy=".721" fill="#000" stroke-width="0" rx=".721" ry=".721" transform="matrix(-0.999999594540642 0 0 0.999999594540642 160.908070018978 109.862064509521)"/><ellipse cx=".721" cy=".721" fill="#000" stroke-width="0" rx=".721" ry=".721" transform="matrix(-0.99999971839338 0 0 0.99999971839338 180.576098790579 112.810308558231)"/><ellipse cx=".721" cy=".721" fill="#000" stroke-width="0" rx=".721" ry=".721" transform="matrix(-0.99999971839338 0 0 0.99999971839338 179.159163278879 109.236896861092)"/><ellipse cx=".721" cy=".721" fill="#000" stroke-width="0" rx=".721" ry=".721" transform="matrix(-0.999999724224868 0 0 0.999999724224868 182.124346835078 116.612904872532)"/><ellipse cx=".721" cy=".721" fill="#000" stroke-width="0" rx=".721" ry=".721" transform="matrix(-0.999999656487553 0 0 0.999999656487553 177.673622342527 106.330971585)"/><ellipse cx=".721" cy=".721" fill="#000" stroke-width="0" rx=".721" ry=".721" transform="matrix(-0.999999696469643 0 0 0.999999696469643 176.204553000155 118.362701108131)"/><ellipse cx=".721" cy=".721" fill="#000" stroke-width="0" rx=".721" ry=".721" transform="matrix(-0.999999687841836 0 0 0.999999687841836 183.934756293 120.802496209394)"/><ellipse cx=".721" cy=".721" fill="#000" stroke-width="0" rx=".721" ry=".721" transform="matrix(-0.999999624549536 0 0 0.999999624549536 167.546395507296 98.3300986511414)"/><ellipse cx=".721" cy=".721" fill="#000" stroke-width="0" rx=".721" ry=".721" transform="matrix(-0.999999627618764 0 0 0.999999627618764 166.330439117457 97.6894899454859)"/><ellipse cx=".721" cy=".721" fill="#000" stroke-width="0" rx=".721" ry=".721" transform="matrix(-0.999999635474904 0 0 0.999999635474904 165.568564133601 97.8713080664529)"/><ellipse cx=".721" cy=".721" fill="#000" stroke-width="0" rx=".721" ry=".721" transform="matrix(-0.999999615474491 0 0 0.999999615474491 165.055476488842 98.4878139596541)"/><ellipse cx=".721" cy=".721" fill="#000" stroke-width="0" rx=".721" ry=".721" transform="matrix(-0.999999628742108 0 0 0.999999628742108 168.234513974206 99.3894804469294)"/><ellipse cx=".721" cy=".721" fill="#000" stroke-width="0" rx=".721" ry=".721" transform="matrix(-0.999999594358806 0 0 0.999999594358806 167.116601062762 97.8148953961664)"/><ellipse cx=".721" cy=".721" fill="#000" stroke-width="0" rx=".721" ry=".721" transform="matrix(-0.999999698829151 0 0 0.999999698829151 169.01840354957 100.768202366541)"/><ellipse cx=".721" cy=".721" fill="#000" stroke-width="0" rx=".721" ry=".721" transform="matrix(-0.999999652342487 0 0 0.999999652342487 162.348118659661 99.0406143347067)"/><ellipse cx=".721" cy=".721" fill="#000" stroke-width="0" rx=".721" ry=".721" transform="matrix(-0.999999655411717 0 0 0.999999655411717 161.282162223779 98.2200056259454)"/><ellipse cx=".721" cy=".721" fill="#000" stroke-width="0" rx=".721" ry=".721" transform="matrix(-0.999999663267855 0 0 0.999999663267855 160.520287218748 98.4018237519656)"/><ellipse cx=".721" cy=".721" fill="#000" stroke-width="0" rx=".721" ry=".721" transform="matrix(-0.999999643267442 0 0 0.999999643267442 160.112199551154 99.0033296635263)"/><ellipse cx=".721" cy=".721" fill="#000" stroke-width="0" rx=".721" ry=".721" transform="matrix(-0.999999656535061 0 0 0.999999656535061 162.976237150596 100.189996152588)"/><ellipse cx=".721" cy=".721" fill="#000" stroke-width="0" rx=".721" ry=".721" transform="matrix(-0.999999622151757 0 0 0.999999622151757 162.023324194608 98.4354110727617)"/><ellipse cx=".721" cy=".721" fill="#000" stroke-width="0" rx=".721" ry=".721" transform="matrix(-0.999999667767335 0 0 0.999999667767335 158.520870608258 102.516966017235)"/><ellipse cx=".721" cy=".721" fill="#000" stroke-width="0" rx=".721" ry=".721" transform="matrix(-0.999999628842387 0 0 0.999999628842387 157.097200902137 99.7162339149556)"/><ellipse cx=".721" cy=".721" fill="#000" stroke-width="0" rx=".721" ry=".721" transform="matrix(-0.999999631911617 0 0 0.999999631911617 156.121244482761 98.850625229751)"/><ellipse cx=".721" cy=".721" fill="#000" stroke-width="0" rx=".721" ry=".721" transform="matrix(-0.999999639767756 0 0 0.999999639767756 155.269369504178 99.0774433472261)"/><ellipse cx=".721" cy=".721" fill="#000" stroke-width="0" rx=".721" ry=".721" transform="matrix(-0.999999619767344 0 0 0.999999619767344 154.996281833358 99.7764492353947)"/><ellipse cx=".721" cy=".721" fill="#000" stroke-width="0" rx=".721" ry=".721" transform="matrix(-0.999999633034961 0 0 0.999999633034961 157.792819371903 100.903115702267)"/><ellipse cx=".721" cy=".721" fill="#000" stroke-width="0" rx=".721" ry=".721" transform="matrix(-0.999999598651658 0 0 0.999999598651658 156.772406444717 99.1110306672329)"/><ellipse cx=".721" cy=".721" fill="#000" stroke-width="0" rx=".721" ry=".721" transform="matrix(-0.999999708896494 0 0 0.999999708896494 153.791169221343 105.421892780037)"/><ellipse cx=".721" cy=".721" fill="#000" stroke-width="0" rx=".721" ry=".721" transform="matrix(-0.999999664748838 0 0 0.999999664748838 153.109681810947 103.246941675365)"/><ellipse cx=".721" cy=".721" fill="#000" stroke-width="0" rx=".721" ry=".721" transform="matrix(-0.999999625823892 0 0 0.999999625823892 152.004210131667 100.265897368767)"/><ellipse cx=".721" cy=".721" fill="#000" stroke-width="0" rx=".721" ry=".721" transform="matrix(-0.99999962889312 0 0 0.99999962889312 151.081286718995 99.3684688839197)"/><ellipse cx=".721" cy=".721" fill="#000" stroke-width="0" rx=".721" ry=".721" transform="matrix(-0.99999963674926 0 0 0.99999963674926 150.335477750498 99.5952870007101)"/><ellipse cx=".721" cy=".721" fill="#000" stroke-width="0" rx=".721" ry=".721" transform="matrix(-0.999999616748848 0 0 0.999999616748848 150.242702293276 100.570064506307)"/><ellipse cx=".721" cy=".721" fill="#000" stroke-width="0" rx=".721" ry=".721" transform="matrix(-0.999999630016465 0 0 0.999999630016465 152.508909785808 101.442172551742)"/><ellipse cx=".721" cy=".721" fill="#000" stroke-width="0" rx=".721" ry=".721" transform="matrix(-0.999999595633161 0 0 0.999999595633161 151.732448678985 99.6288743206156)"/><ellipse cx=".721" cy=".721" fill="#000" stroke-width="0" rx=".721" ry=".721" transform="matrix(-0.99999971744922 0 0 0.99999971744922 150.750299971613 119.076313317109)"/><ellipse cx=".721" cy=".721" fill="#000" stroke-width="0" rx=".721" ry=".721" transform="matrix(-0.99999971744922 0 0 0.99999971744922 156.833555411892 118.0759120337)"/><ellipse cx=".721" cy=".721" fill="#000" stroke-width="0" rx=".721" ry=".721" transform="matrix(-0.99999969545751 0 0 0.99999969545751 154.317480284658 107.927756803206)"/><ellipse cx=".721" cy=".721" fill="#000" stroke-width="0" rx=".721" ry=".721" transform="matrix(-0.99999971744922 0 0 0.99999971744922 155.141396921135 110.840886060243)"/><ellipse cx=".721" cy=".721" fill="#000" stroke-width="0" rx=".721" ry=".721" transform="matrix(-0.999999578083163 0 0 0.999999578083163 156.003486636518 114.234317887664)"/><ellipse cx=".721" cy=".721" fill="#000" stroke-width="0" rx=".721" ry=".721" transform="matrix(-0.999999693600106 0 0 0.999999693600106 147.733277578642 103.826881644606)"/><ellipse cx=".721" cy=".721" fill="#000" stroke-width="0" rx=".721" ry=".721" transform="matrix(-0.999999702152832 0 0 0.999999702152832 150.033201705327 115.038403071043)"/><ellipse cx=".721" cy=".721" fill="#000" stroke-width="0" rx=".721" ry=".721" transform="matrix(-0.999999680161122 0 0 0.999999680161122 148.302015034896 105.950908020534)"/><ellipse cx=".721" cy=".721" fill="#000" stroke-width="0" rx=".721" ry=".721" transform="matrix(-0.999999702152832 0 0 0.999999702152832 148.74409404986 108.673118428554)"/><ellipse cx=".721" cy=".721" fill="#000" stroke-width="0" rx=".721" ry=".721" transform="matrix(-0.999999562786776 0 0 0.999999562786776 149.351625346115 111.642286194166)"/><ellipse cx=".721" cy=".721" fill="#000" stroke-width="0" rx=".721" ry=".721" transform="matrix(-0.999999639443575 0 0 0.999999639443575 146.897252420784 100.762649680987)"/><ellipse cx=".721" cy=".721" fill="#000" stroke-width="0" rx=".721" ry=".721" transform="matrix(-0.999999642512805 0 0 0.999999642512805 146.004328991895 99.5652212203691)"/><ellipse cx=".721" cy=".721" fill="#000" stroke-width="0" rx=".721" ry=".721" transform="matrix(-0.999999650368944 0 0 0.999999650368944 145.303520007772 100.107039301975)"/><ellipse cx=".721" cy=".721" fill="#000" stroke-width="0" rx=".721" ry=".721" transform="matrix(-0.999999630368531 0 0 0.999999630368531 145.390744527417 100.766816859122)"/><ellipse cx=".721" cy=".721" fill="#000" stroke-width="0" rx=".721" ry=".721" transform="matrix(-0.999999643636149 0 0 0.999999643636149 147.326952090909 102.073924863581)"/><ellipse cx=".721" cy=".721" fill="#000" stroke-width="0" rx=".721" ry=".721" transform="matrix(-0.999999609252845 0 0 0.999999609252845 146.625490964398 99.9306266478534)"/><ellipse cx=".721" cy=".721" fill="#000" stroke-width="0" rx=".721" ry=".721" transform="matrix(-0.999999698745878 0 0 0.999999698745878 142.386559277856 104.311650576449)"/><ellipse cx=".721" cy=".721" fill="#000" stroke-width="0" rx=".721" ry=".721" transform="matrix(-0.999999707298604 0 0 0.999999707298604 144.056483432686 115.733172055142)"/><ellipse cx=".721" cy=".721" fill="#000" stroke-width="0" rx=".721" ry=".721" transform="matrix(-0.999999685306894 0 0 0.999999685306894 142.655296744804 106.46567696253)"/><ellipse cx=".721" cy=".721" fill="#000" stroke-width="0" rx=".721" ry=".721" transform="matrix(-0.999999707298604 0 0 0.999999707298604 143.142375760876 109.097887386888)"/><ellipse cx=".721" cy=".721" fill="#000" stroke-width="0" rx=".721" ry=".721" transform="matrix(-0.999999567932547 0 0 0.999999567932547 143.659907062588 112.277055162342)"/><ellipse cx=".721" cy=".721" fill="#000" stroke-width="0" rx=".721" ry=".721" transform="matrix(-0.999999644589346 0 0 0.999999644589346 141.805534109093 101.277418596285)"/><ellipse cx=".721" cy=".721" fill="#000" stroke-width="0" rx=".721" ry=".721" transform="matrix(-0.999999647658575 0 0 0.999999647658575 141.032610672503 99.8699901349423)"/><ellipse cx=".721" cy=".721" fill="#000" stroke-width="0" rx=".721" ry=".721" transform="matrix(-0.999999655514715 0 0 0.999999655514715 140.361801683998 100.531808216231)"/><ellipse cx=".721" cy=".721" fill="#000" stroke-width="0" rx=".721" ry=".721" transform="matrix(-0.999999635514302 0 0 0.999999635514302 140.44902620409 101.191585776771)"/><ellipse cx=".721" cy=".721" fill="#000" stroke-width="0" rx=".721" ry=".721" transform="matrix(-0.999999648781919 0 0 0.999999648781919 142.115233784536 102.543693786791)"/><ellipse cx=".721" cy=".721" fill="#000" stroke-width="0" rx=".721" ry=".721" transform="matrix(-0.999999614398616 0 0 0.999999614398616 141.683772647426 100.3553955612)"/><ellipse cx=".721" cy=".721" fill="#000" stroke-width="0" rx=".721" ry=".721" transform="matrix(-0.999999697125892 0 0 0.999999697125892 144.571688261923 119.657968131439)"/><ellipse cx=".721" cy=".721" fill="#000" stroke-width="0" rx=".721" ry=".721" transform="matrix(-0.999999677610259 0 0 0.999999677610259 136.956374998164 104.638732180521)"/><ellipse cx=".721" cy=".721" fill="#000" stroke-width="0" rx=".721" ry=".721" transform="matrix(-0.999999686162985 0 0 0.999999686162985 138.086299130299 116.195253414662)"/><ellipse cx=".721" cy=".721" fill="#000" stroke-width="0" rx=".721" ry=".721" transform="matrix(-0.999999664171276 0 0 0.999999664171276 137.195112460131 106.912758518274)"/><ellipse cx=".721" cy=".721" fill="#000" stroke-width="0" rx=".721" ry=".721" transform="matrix(-0.999999686162985 0 0 0.999999686162985 137.502191470109 109.5749688863)"/><ellipse cx=".721" cy=".721" fill="#000" stroke-width="0" rx=".721" ry=".721" transform="matrix(-0.999999546796932 0 0 0.999999546796932 137.749722767182 112.634136597359)"/><ellipse cx=".721" cy=".721" fill="#000" stroke-width="0" rx=".721" ry=".721" transform="matrix(-0.999999623453729 0 0 0.999999623453729 136.735349833282 101.514500266587)"/><ellipse cx=".721" cy=".721" fill="#000" stroke-width="0" rx=".721" ry=".721" transform="matrix(-0.999999626522958 0 0 0.999999626522958 136.037426411278 100.107071834991)"/><ellipse cx=".721" cy=".721" fill="#000" stroke-width="0" rx=".721" ry=".721" transform="matrix(-0.999999634379097 0 0 0.999999634379097 135.63661743065 101.263889890741)"/><ellipse cx=".721" cy=".721" fill="#000" stroke-width="0" rx=".721" ry=".721" transform="matrix(-0.999999614378685 0 0 0.999999614378685 135.828841946448 100.438667471988)"/><ellipse cx=".721" cy=".721" fill="#000" stroke-width="0" rx=".721" ry=".721" transform="matrix(-0.999999627646301 0 0 0.999999627646301 136.805049507778 102.84077542893)"/><ellipse cx=".721" cy=".721" fill="#000" stroke-width="0" rx=".721" ry=".721" transform="matrix(-0.999999593262999 0 0 0.999999593262999 136.688588372437 100.59247725099)"/><ellipse cx=".721" cy=".721" fill="#000" stroke-width="0" rx=".721" ry=".721" transform="matrix(-0.999999675990273 0 0 0.999999675990273 138.451503952147 120.180049406606)"/><ellipse cx=".721" cy=".721" fill="#000" stroke-width="0" rx=".721" ry=".721" transform="matrix(-0.999999683901569 0 0 0.999999683901569 131.499695674716 104.873501992718)"/><ellipse cx=".721" cy=".721" fill="#000" stroke-width="0" rx=".721" ry=".721" transform="matrix(-0.999999692454294 0 0 0.999999692454294 132.093259463934 116.371530877182)"/><ellipse cx=".721" cy=".721" fill="#000" stroke-width="0" rx=".721" ry=".721" transform="matrix(-0.999999670462584 0 0 0.999999670462584 131.717219935913 107.041462333414)"/><ellipse cx=".721" cy=".721" fill="#000" stroke-width="0" rx=".721" ry=".721" transform="matrix(-0.999999692454294 0 0 0.999999692454294 131.749151782807 109.841246300696)"/><ellipse cx=".721" cy=".721" fill="#000" stroke-width="0" rx=".721" ry=".721" transform="matrix(-0.99999955308824 0 0 0.99999955308824 131.876683090069 112.900414031001)"/><ellipse cx=".721" cy=".721" fill="#000" stroke-width="0" rx=".721" ry=".721" transform="matrix(-0.999999629745037 0 0 0.999999629745037 131.342310115262 101.600777643219)"/><ellipse cx=".721" cy=".721" fill="#000" stroke-width="0" rx=".721" ry=".721" transform="matrix(-0.999999632814267 0 0 0.999999632814267 130.983797925233 100.172136000494)"/><ellipse cx=".721" cy=".721" fill="#000" stroke-width="0" rx=".721" ry=".721" transform="matrix(-0.999999640670407 0 0 0.999999640670407 130.646628548902 101.371380468069)"/><ellipse cx=".721" cy=".721" fill="#000" stroke-width="0" rx=".721" ry=".721" transform="matrix(-0.999999620669994 0 0 0.999999620669994 130.796426661365 100.652224055489)"/><ellipse cx=".721" cy=".721" fill="#000" stroke-width="0" rx=".721" ry=".721" transform="matrix(-0.999999633937611 0 0 0.999999633937611 131.412009790199 102.927052813906)"/><ellipse cx=".721" cy=".721" fill="#000" stroke-width="0" rx=".721" ry=".721" transform="matrix(-0.999999599554308 0 0 0.999999599554308 131.295548654123 100.678754621821)"/><ellipse cx=".721" cy=".721" fill="#000" stroke-width="0" rx=".721" ry=".721" transform="matrix(-0.999999682281583 0 0 0.999999682281583 132.248464303184 120.536326881248)"/><ellipse cx=".721" cy=".721" fill="#000" stroke-width="0" rx=".721" ry=".721" transform="matrix(-0.999999680903919 0 0 0.999999680903919 126.059847220867 104.944416046998)"/><ellipse cx=".721" cy=".721" fill="#000" stroke-width="0" rx=".721" ry=".721" transform="matrix(-0.999999689456644 0 0 0.999999689456644 126.101867739067 116.463658099658)"/><ellipse cx=".721" cy=".721" fill="#000" stroke-width="0" rx=".721" ry=".721" transform="matrix(-0.999999667464936 0 0 0.999999667464936 126.065239454781 107.091163178531)"/><ellipse cx=".721" cy=".721" fill="#000" stroke-width="0" rx=".721" ry=".721" transform="matrix(-0.999999689456644 0 0 0.999999689456644 126.075958098916 109.784881124105)"/><ellipse cx=".721" cy=".721" fill="#000" stroke-width="0" rx=".721" ry=".721" transform="matrix(-0.999999550090592 0 0 0.999999550090592 126.076210189818 112.992541263881)"/><ellipse cx=".721" cy=".721" fill="#000" stroke-width="0" rx=".721" ry=".721" transform="matrix(-0.999999626747388 0 0 0.999999626747388 126.135806891179 101.417133275352)"/><ellipse cx=".721" cy=".721" fill="#000" stroke-width="0" rx=".721" ry=".721" transform="matrix(-0.999999629816618 0 0 0.999999629816618 126.201558755485 101.049151770061)"/><ellipse cx=".721" cy=".721" fill="#000" stroke-width="0" rx=".721" ry=".721" transform="matrix(-0.999999630939962 0 0 0.999999630939962 126.078227349927 103.019180076683)"/><ellipse cx=".721" cy=".721" fill="#000" stroke-width="0" rx=".721" ry=".721" transform="matrix(-0.999999596556659 0 0 0.999999596556659 126.08904543018 100.219338622099)"/><ellipse cx=".721" cy=".721" fill="#000" stroke-width="0" rx=".721" ry=".721" transform="matrix(-0.999999679283933 0 0 0.999999679283933 126.066153753884 120.501174875261)"/></clipPath><linearGradient id="gradient0" x1="0" x2="1" y1=".5" y2=".5" gradientUnits="objectBoundingBox"><stop offset="0" stop-color="#6d66e4" stop-opacity="1"/><stop offset="1" stop-color="#bc66d5" stop-opacity="1"/></linearGradient><rect width="100%" height="100%" fill="url(#gradient0)" clip-path="url(#mask0)"/></svg>