<svg xmlns="http://www.w3.org/2000/svg" width="118.836" height="20.319" viewBox="0 0 118.836 20.319">
  <g id="Group_1" data-name="Group 1" transform="translate(0 0.01)">
    <g id="Group_3" data-name="Group 3" transform="translate(28.084 -0.01)">
      <path id="Path_10" data-name="Path 10" d="M80.43,6.275a7.489,7.489,0,0,1,.339-2.28,3.528,3.528,0,0,1,.464-1.055,9.443,9.443,0,0,1,.6-.8A6.107,6.107,0,0,1,86.509,0h7.455a.25.25,0,0,1,.283.283V3.377a.25.25,0,0,1-.283.283H86.677A2.341,2.341,0,0,0,85.046,4.8a4.684,4.684,0,0,0-.534,2.378V14.3a2.506,2.506,0,0,0,.632,1.561,2.3,2.3,0,0,0,1.533.66h7.287a.25.25,0,0,1,.283.283v3.094a.25.25,0,0,1-.283.283h-7.2a6.548,6.548,0,0,1-1.491-.154,7.162,7.162,0,0,1-1.124-.353,4.988,4.988,0,0,1-1.913-1.281,7.169,7.169,0,0,1-1.379-2.123,5.5,5.5,0,0,1-.283-.831,4.968,4.968,0,0,1-.14-1.281Z" transform="translate(-80.43 0.003)" fill="#41484d"/>
      <path id="Path_11" data-name="Path 11" d="M130.7,1.652a1.893,1.893,0,0,1,1.24-1.379A8.469,8.469,0,0,1,134.39-.01a8.854,8.854,0,0,1,2.518.283,1.9,1.9,0,0,1,1.254,1.379L143.818,20c0,.112-.066.168-.2.168h-3.687a.348.348,0,0,1-.367-.255l-1.491-4.868a.353.353,0,0,0-.367-.283H131.1a.362.362,0,0,0-.367.311l-1.491,4.812a.353.353,0,0,1-.367.283h-3.659c-.15,0-.223-.056-.223-.168Zm4.023,2.507a2.313,2.313,0,0,0-.14-.409.207.207,0,0,0-.2-.1c-.094,0-.2.168-.311.506l-1.969,6.414a.172.172,0,0,1-.014.084.11.11,0,0,0-.014.056c0,.133.073.2.223.2H136.5c.15,0,.223-.066.223-.2a.11.11,0,0,0-.014-.056.173.173,0,0,1-.014-.084Z" transform="translate(-109.431 0.01)" fill="#41484d"/>
      <path id="Path_12" data-name="Path 12" d="M183.9,19.893V.283A.25.25,0,0,1,184.183,0h9.6a5.69,5.69,0,0,1,4.7,2.221,6.475,6.475,0,0,1,1.11,2.252,9.548,9.548,0,0,1,.353,2.559v6.753a7.587,7.587,0,0,1-.353,2.238,6.023,6.023,0,0,1-1.11,2.067,5.776,5.776,0,0,1-1.913,1.5,6.1,6.1,0,0,1-2.759.576h-9.627A.245.245,0,0,1,183.9,19.893Zm4.078-3.656a.25.25,0,0,0,.283.283H193.3a1.98,1.98,0,0,0,.915-.241,3.2,3.2,0,0,0,.831-.618,3.26,3.26,0,0,0,.59-.845,2.15,2.15,0,0,0,.227-.943V6.386a2.133,2.133,0,0,0-.255-1A3.347,3.347,0,0,0,194.072,3.9a2.247,2.247,0,0,0-1-.241h-4.812a.25.25,0,0,0-.283.283Z" transform="translate(-147.77 0.003)" fill="#41484d"/>
      <path id="Path_13" data-name="Path 13" d="M246.988,27.033a.25.25,0,0,1,.283.283v2.87a.25.25,0,0,1-.283.283H241.7a6.471,6.471,0,0,1-4.812-1.983,6.4,6.4,0,0,1-1.3-1.969,5.569,5.569,0,0,1-.45-2.151V22a7.581,7.581,0,0,1,.409-2.573,4.842,4.842,0,0,1,1.268-1.941,5.83,5.83,0,0,1,2.21-1.24,10.518,10.518,0,0,1,3.209-.436h4.756a.25.25,0,0,1,.283.283v2.87a.25.25,0,0,1-.283.283h-5.318a2.951,2.951,0,0,0-2.434.985,3.71,3.71,0,0,0-.8,2.42v1.208a3.355,3.355,0,0,0,.775,2.294,3.11,3.11,0,0,0,2.462.887h5.314Z" transform="translate(-181.119 -10.286)" fill="#92999e"/>
      <path id="Path_14" data-name="Path 14" d="M285.615,15.79h2.87a.25.25,0,0,1,.283.283V27.159a2.3,2.3,0,0,1-.548,1.547,4.2,4.2,0,0,1-1.435,1.068,7.649,7.649,0,0,1-2,.618,13.006,13.006,0,0,1-2.238.2,13.177,13.177,0,0,1-2.266-.2,7.683,7.683,0,0,1-1.983-.618,4.3,4.3,0,0,1-1.421-1.068,2.311,2.311,0,0,1-.548-1.547V16.073a.25.25,0,0,1,.283-.283h2.87a.25.25,0,0,1,.283.283v9.875a.657.657,0,0,0,.241.478,2.215,2.215,0,0,0,.618.395,3.815,3.815,0,0,0,.887.255,6.008,6.008,0,0,0,1.041.084,6.11,6.11,0,0,0,1.027-.084,3.775,3.775,0,0,0,.887-.255,2.109,2.109,0,0,0,.632-.395.657.657,0,0,0,.241-.478V16.073A.242.242,0,0,1,285.615,15.79Z" transform="translate(-207.926 -10.273)" fill="#92999e"/>
      <path id="Path_15" data-name="Path 15" d="M321.859,19.135a.25.25,0,0,0,.283.283h2.364c.15.017.223.112.223.283v2.87a.25.25,0,0,1-.283.283H320.9a2.533,2.533,0,0,1-1.774-.646,2.009,2.009,0,0,1-.7-1.519V11.9a.25.25,0,0,0-.283-.283h-1.491a.25.25,0,0,1-.283-.283V8.471a.25.25,0,0,1,.283-.283h1.491a.25.25,0,0,0,.283-.283V4.393a.25.25,0,0,1,.283-.283h2.87a.25.25,0,0,1,.283.283V7.909a.25.25,0,0,0,.283.283h2.308a.25.25,0,0,1,.283.283v2.87a.25.25,0,0,1-.283.283h-2.308a.25.25,0,0,0-.283.283v7.225Z" transform="translate(-233.985 -2.671)" fill="#92999e"/>
    </g>
    <g id="Group_5" data-name="Group 5" transform="translate(0 -0.007)">
      <rect id="Rectangle_3" data-name="Rectangle 3" width="11.729" height="20.315" transform="translate(23.459 20.316) rotate(180)"/>
      <path id="Path_16" data-name="Path 16" d="M11.729,20.315,23.458,0H0Z" fill="#b70821"/>
      <g id="Group_4" data-name="Group 4">
        <path id="Path_17" data-name="Path 17" d="M11.729,20.315V0H0Z" fill="#e0001a"/>
      </g>
    </g>
  </g>
</svg>
